<?xml version="1.0" standalone="no"?>
<!DOCTYPE svg PUBLIC "-//W3C//DTD SVG 1.1//EN" "http://www.w3.org/Graphics/SVG/1.1/DTD/svg11.dtd" >
<svg xmlns="http://www.w3.org/2000/svg">
<metadata>Generated by IcoMoon</metadata>
<defs>
<font id="semrush-s" horiz-adv-x="1024">
<font-face units-per-em="1024" ascent="960" descent="-64" />
<missing-glyph horiz-adv-x="1024" />
<glyph unicode="&#x20;" horiz-adv-x="512" d="" />
<glyph unicode="&#xe900;" glyph-name="adposition-bottom" d="M0 960v-960h960v960h-960zM896 64h-832v832h832v-832zM832 384h-704v-256h704v256zM832 576h-704v-64h704v64zM832 704h-704v-64h704v64zM832 832h-704v-64h704v64z" />
<glyph unicode="&#xe901;" glyph-name="adposition-side" d="M0 960v-960h960v960h-960zM896 64h-832v832h832v-832zM832 832h-256v-704h256v704zM448 448h-320v-64h320v64zM448 320h-320v-64h320v64zM448 192h-320v-64h320v64zM448 832h-320v-64h320v64zM448 704h-320v-64h320v64zM448 576h-320v-64h320v64z" />
<glyph unicode="&#xe902;" glyph-name="adposition-top" d="M0 960v-960h960v960h-960zM896 64h-832v832h832v-832zM832 832h-704v-256h704v256zM832 448h-704v-64h704v64zM832 320h-704v-64h704v64zM832 192h-704v-64h704v64z" />
<glyph unicode="&#xe903;" glyph-name="alert" d="M512 896l-512-896h1024zM576 128h-128v128h128v-128zM448 320v256h128v-256h-128z" />
<glyph unicode="&#xe904;" glyph-name="aligncenter" d="M832 896h-640v-64h640v64zM192 64h640v64h-640v-64zM0 192h1024v64h-1024v-64zM192 384v-64h640v64h-640zM0 448h1024v64h-1024v-64zM192 640v-64h640v64h-640zM0 768v-64h1024v64h-1024z" />
<glyph unicode="&#xe905;" glyph-name="alignleft" d="M704 896h-704v-64h704v64zM0 64h704v64h-704v-64zM0 192h960v64h-960v-64zM704 384h-704v-64h704v64zM0 448h960v64h-960v-64zM704 640h-704v-64h704v64zM0 768v-64h960v64h-960z" />
<glyph unicode="&#xe906;" glyph-name="alignright" d="M256 128h704v-64h-704v64zM256 896h704v-64h-704v64zM0 768h960v-64h-960v64zM256 640h704v-64h-704v64zM0 512h960v-64h-960v64zM256 384h704v-64h-704v64zM0 256h960v-64h-960v64z" />
<glyph unicode="&#xe907;" glyph-name="android" d="M608 704c-17.673 0-32 14.327-32 32s14.327 32 32 32c17.673 0 32-14.327 32-32 0.002-0.115 0.002-0.251 0.002-0.386 0-17.461-14.155-31.616-31.616-31.616-0.136 0-0.271 0.001-0.407 0.003zM896 256c0.249-0.004 0.543-0.006 0.838-0.006 34.887 0 63.168 28.281 63.168 63.168 0 0.294-0.002 0.589-0.006 0.882v255.956c0 35.346-28.654 64-64 64s-64-28.654-64-64v-256c-0.004-0.249-0.006-0.543-0.006-0.838 0-34.887 28.281-63.168 63.168-63.168 0.294 0 0.589 0.002 0.882 0.006zM256 640h512c-0.428 57.467-19.901 110.304-52.41 152.599l50.426 123.369c1.291 3.413 2.039 7.36 2.039 11.481 0 13.597-8.139 25.293-19.81 30.483-3.179 1.386-6.638 2.144-10.273 2.144-0.694 0-1.381-0.028-2.060-0.082-0.257 0.020-0.664 0.028-1.073 0.028-13.148 0-24.371-8.243-28.783-19.843l-40.071-98.195c-42.103 32.981-95.606 53.178-153.794 54.014-59.176-1.192-113.242-21.305-156.812-54.492l-37.362 98.462c-5.916 11.943-18.013 20.014-31.998 20.032-0.265 0.011-0.574 0.018-0.884 0.018-3.303 0-6.433-0.738-9.235-2.058-11.685-5.022-19.825-16.531-19.9-29.95-0.048-0.6-0.076-1.287-0.076-1.98 0-3.636 0.758-7.094 2.124-10.226l49.984-123.803c-32.089-41.69-51.584-94.526-52.031-151.897zM416 704c-17.673 0-32 14.327-32 32s14.327 32 32 32c17.673 0 32-14.327 32-32 0.002-0.115 0.002-0.251 0.002-0.386 0-17.461-14.155-31.616-31.616-31.616-0.136 0-0.271 0.001-0.407 0.003zM128 256c0.249-0.004 0.543-0.006 0.838-0.006 34.887 0 63.168 28.281 63.168 63.168 0 0.294-0.002 0.589-0.006 0.882v255.956c0.004 0.249 0.006 0.543 0.006 0.838 0 34.887-28.281 63.168-63.168 63.168-0.294 0-0.589-0.002-0.882-0.006-0.205 0.004-0.499 0.006-0.793 0.006-34.887 0-63.168-28.281-63.168-63.168 0-0.294 0.002-0.589 0.006-0.882v-255.956c-0.004-0.249-0.006-0.543-0.006-0.838 0-34.887 28.281-63.168 63.168-63.168 0.294 0 0.589 0.002 0.882 0.006zM384-64c0.249-0.004 0.543-0.006 0.838-0.006 34.887 0 63.168 28.281 63.168 63.168 0 0.294-0.002 0.589-0.006 0.882v127.956h128v-128c0-35.346 28.654-64 64-64s64 28.654 64 64v128c35.244 0.252 63.748 28.756 64 63.976v384.024h-512v-384c-0.004-0.249-0.006-0.543-0.006-0.838 0-34.887 28.281-63.168 63.168-63.168 0.294 0 0.589 0.002 0.882 0.006l-0.044-128c-0.004-0.249-0.006-0.543-0.006-0.838 0-34.887 28.281-63.168 63.168-63.168 0.294 0 0.589 0.002 0.882 0.006z" />
<glyph unicode="&#xe908;" glyph-name="apple" d="M512 768c52.628 0.917 99.939 22.939 133.973 57.94 35.093 34.118 57.118 81.431 58.025 133.892-52.444-1.725-99.461-23.513-134.026-57.827-34.718-34.269-56.639-81.453-57.967-133.756zM329.984-64c62.016 0 89.984 64 168 64 76.032 0 96-64 166.016-64 62.016 0 108.032 51.968 158.016 118.016 32.441 43.848 57.833 95.197 73.21 150.709-75.267 37.184-127.312 112.113-127.312 199.199 0 2.131 0.031 4.255 0.093 6.371 1.046 79.754 39.85 150.542 99.382 195.196-42.455 60.336-111.955 98.866-190.454 98.866-4.55 0-9.070-0.129-13.557-0.385-71.379 0.028-137.363-63.972-179.347-63.972s-104 64-168 64c-90.383-0.287-168.941-50.639-209.423-124.765-27.127-47.294-42.76-102.498-42.76-161.353 0-3.475 0.054-6.937 0.163-10.386 3.648-126.369 42.68-243.426 107.505-342.012 40.514-59.468 88.514-129.484 158.466-129.484z" />
<glyph unicode="&#xe909;" glyph-name="banner" d="M768 960h-512c-35.346 0-64-28.654-64-64v-960l320 192 320-192v960c0 35.346-28.654 64-64 64z" />
<glyph unicode="&#xe90a;" glyph-name="banner2" d="M704 832v-669.952l-192 115.2-192-115.2v669.952h384zM768 960h-512c-35.346 0-64-28.654-64-64v-960l320 192 320-192v960c0 35.346-28.654 64-64 64v0z" />
<glyph unicode="&#xe90b;" glyph-name="bell" d="M512-64c70.489 0.504 127.496 57.511 128 127.952l-256 0.048c0.504-70.489 57.511-127.496 127.952-128zM64 128h896v64c-70.489 0.504-127.496 57.511-128 127.952v192.048c-0.422 154.035-109.070 282.572-253.889 313.605l-2.111 70.395c0 35.346-28.654 64-64 64s-64-28.654-64-64v-70.016c-146.93-31.412-255.578-159.949-256-313.937v-192.047c-0.504-70.489-57.511-127.496-127.952-128l-0.048-64z" />
<glyph unicode="&#xe90c;" glyph-name="blocked" d="M512 896c-247.424 0-448-200.576-448-448s200.576-448 448-448c247.424 0 448 200.576 448 448s-200.576 448-448 448zM192 448c0 0.078 0 0.171 0 0.263 0 176.554 143.126 319.68 319.68 319.68 65.774 0 126.908-19.864 177.731-53.92l-444.162-442.28c-33.36 49.538-53.248 110.555-53.248 176.217 0 0.014 0 0.027 0 0.041zM512 128c-0.011 0-0.025 0-0.039 0-65.662 0-126.68 19.888-177.356 53.97l444.211 442.35c33.354-49.682 53.234-110.84 53.234-176.64 0-176.554-143.126-319.68-319.68-319.68-0.13 0-0.26 0-0.39 0z" />
<glyph unicode="&#xe90d;" glyph-name="book" d="M832 832v-768h-576c-35.346 0-64 28.654-64 64s28.654 64 64 64h512v768h-512c-106.039 0-192-85.961-192-192v-640c0-106.039 85.961-192 192-192h704v896h-128zM256 832h384v-64h-384v64z" />
<glyph unicode="&#xe90e;" glyph-name="brackets" d="M384-64h64v128h-64c-0.249-0.004-0.543-0.006-0.838-0.006-34.887 0-63.168 28.281-63.168 63.168 0 0.294 0.002 0.589 0.006 0.882v191.956c-0.394 49.388-19.306 94.285-50.124 128.156 30.818 33.56 49.73 78.456 50.123 127.764l0.001 192.080c-0.004 0.249-0.006 0.543-0.006 0.838 0 34.887 28.281 63.168 63.168 63.168 0.294 0 0.589-0.002 0.882-0.006h63.956v128h-64c-106.039 0-192-85.961-192-192v-192c0.004-0.249 0.006-0.543 0.006-0.838 0-34.887-28.281-63.168-63.168-63.168-0.294 0-0.589 0.002-0.882 0.006h-63.956v-128h64c0.249 0.004 0.543 0.006 0.838 0.006 34.887 0 63.168-28.281 63.168-63.168 0-0.294-0.002-0.589-0.006-0.882v-191.956c0-106.039 85.961-192 192-192zM576-64h64c106.039 0 192 85.961 192 192v192c-0.004 0.249-0.006 0.543-0.006 0.838 0 34.887 28.281 63.168 63.168 63.168 0.294 0 0.589-0.002 0.882-0.006h63.956v128h-64c-0.249-0.004-0.543-0.006-0.838-0.006-34.887 0-63.168 28.281-63.168 63.168 0 0.294 0.002 0.589 0.006 0.882v191.956c0 106.039-85.961 192-192 192h-64v-128h64c0.249 0.004 0.543 0.006 0.838 0.006 34.887 0 63.168-28.281 63.168-63.168 0-0.294-0.002-0.589-0.006-0.882v-191.956c0.387-49.389 19.301-94.287 50.123-128.155-30.817-33.56-49.73-78.456-50.123-127.764l-0.001-192.080c0.004-0.249 0.006-0.543 0.006-0.838 0-34.887-28.281-63.168-63.168-63.168-0.294 0-0.589 0.002-0.882 0.006h-63.956v-128z" />
<glyph unicode="&#xe90f;" glyph-name="bulb" d="M384 64c0-35.346 28.654-64 64-64h5.888c13.436-37.532 48.695-63.9 90.112-63.9s76.676 26.369 89.903 63.234l6.097 0.666c35.346 0 64 28.654 64 64v64h-320v-64zM544 960c-0.014 0-0.030 0-0.046 0-194.404 0-352-157.596-352-352 0-118.593 58.648-223.489 148.523-287.265 28.584-26.651 45.702-63.313 45.702-103.973 0-8.751-0.793-17.317-2.311-25.63l320.132 0.868c-1.386 7.445-2.179 16.011-2.179 24.762 0 40.66 17.118 77.322 44.541 103.172 91.037 64.577 149.685 169.472 149.685 288.066 0 194.404-157.596 352-352 352-0.016 0-0.033 0-0.049 0zM544 752c-79.485-0.109-143.891-64.515-144-143.99 0-26.52-21.49-48.010-48-48.010s-48 21.49-48 48c0.182 132.475 107.525 239.818 239.983 240 26.527 0 48.017-21.49 48.017-48s-21.49-48-48-48z" />
<glyph unicode="&#xe910;" glyph-name="calendar" d="M672 768h64c0.115-0.002 0.251-0.002 0.386-0.002 17.461 0 31.616 14.155 31.616 31.616 0 0.136-0.001 0.271-0.003 0.407v127.979c0.002 0.115 0.002 0.251 0.002 0.386 0 17.461-14.155 31.616-31.616 31.616-0.136 0-0.271-0.001-0.407-0.003h-63.979c-0.115 0.002-0.251 0.002-0.386 0.002-17.461 0-31.616-14.155-31.616-31.616 0-0.136 0.001-0.271 0.003-0.407v-127.979c-0.002-0.115-0.002-0.251-0.002-0.386 0-17.461 14.155-31.616 31.616-31.616 0.136 0 0.271 0.001 0.407 0.003zM288 768h64c0.115-0.002 0.251-0.002 0.386-0.002 17.461 0 31.616 14.155 31.616 31.616 0 0.136-0.001 0.271-0.003 0.407v127.979c0.002 0.115 0.002 0.251 0.002 0.386 0 17.461-14.155 31.616-31.616 31.616-0.136 0-0.271-0.001-0.407-0.003h-63.979c-0.115 0.002-0.251 0.002-0.386 0.002-17.461 0-31.616-14.155-31.616-31.616 0-0.136 0.001-0.271 0.003-0.407v-127.979c-0.002-0.115-0.002-0.251-0.002-0.386 0-17.461 14.155-31.616 31.616-31.616 0.136 0 0.271 0.001 0.407 0.003zM640 384h128v128h-128v-128zM448 384h128v128h-128v-128zM192 128v448h640v-448h-640zM448 192h128v128h-128v-128zM256 384h128v128h-128v-128zM256 192h128v128h-128v-128zM192 0h640c70.489 0.504 127.496 57.511 128 127.952v576.048c-0.504 70.489-57.511 127.496-127.952 128l-0.048-128h-256v128h-128v-128h-256v128c-70.489-0.504-127.496-57.511-128-127.952v-576.048c0.504-70.489 57.511-127.496 127.952-128z" />
<glyph unicode="&#xe911;" glyph-name="cart" d="M864-64c53.019 0 96 42.981 96 96s-42.981 96-96 96c-53.019 0-96-42.981-96-96-0.005-0.364-0.008-0.794-0.008-1.224 0-52.348 42.436-94.784 94.784-94.784 0.43 0 0.86 0.003 1.289 0.009zM288-64c53.019 0 96 42.981 96 96s-42.981 96-96 96c-53.019 0-96-42.981-96-96-0.005-0.364-0.008-0.794-0.008-1.224 0-52.348 42.436-94.784 94.784-94.784 0.43 0 0.86 0.003 1.289 0.009zM256 192h640c35.346 0 64 28.654 64 64s-28.654 64-64 64h-576v128h512c25.131 0.486 46.812 14.787 57.809 35.604l128.175 256.364c3.802 7.942 6.023 17.264 6.023 27.104 0 0.326-0.002 0.652-0.007 0.977-0.261 12.561-3.942 24.259-10.149 34.22-11.501 17.592-31.262 29.34-53.792 29.73l-640.058 0.001c-0.504 70.489-57.511 127.496-127.952 128h-192.048v-128h192v-576c-0.004-0.249-0.006-0.543-0.006-0.838 0-34.887 28.281-63.168 63.168-63.168 0.294 0 0.589 0.002 0.882 0.006z" />
<glyph unicode="&#xe912;" glyph-name="chain" d="M967.168 371.2l-107.072 106.944c-34.756 34.809-82.799 56.343-135.872 56.343s-101.116-21.534-135.87-56.341l-8.258-8.258-47.68 47.808 8.256 8.256c34.728 34.829 56.201 82.891 56.201 135.968s-21.473 101.139-56.205 135.973l-107.131 107.195c-34.756 34.809-82.799 56.343-135.872 56.343s-101.116-21.534-135.87-56.341l-107.074-107.202c-34.728-34.829-56.201-82.891-56.201-135.968s21.473-101.139 56.205-135.973l107.131-107.131c34.756-34.809 82.799-56.343 135.872-56.343s101.116 21.534 135.87 56.341l8.002 8.258 47.936-47.808-8.256-8.064c-34.728-34.829-56.201-82.891-56.201-135.968s21.473-101.139 56.205-135.973l107.067-107.195c34.756-34.809 82.799-56.343 135.872-56.343s101.116 21.534 135.87 56.341l107.074 107.138c34.747 34.832 56.233 82.907 56.233 136s-21.486 101.168-56.236 136.004zM348.544 490.688c-13.012-13.041-31.004-21.11-50.88-21.11s-37.868 8.068-50.879 21.108l-120.257 120.321c-12.999 13.044-21.036 31.039-21.036 50.912s8.037 37.868 21.038 50.914l120.318 120.382c13.033 12.995 31.018 21.030 50.88 21.030s37.847-8.035 50.882-21.032l120.254-120.382c12.999-13.044 21.036-31.039 21.036-50.912s-8.037-37.868-21.038-50.914l-14.846-14.846-89.6 89.984c-11.632 11.624-27.696 18.812-45.44 18.812-35.503 0-64.284-28.781-64.284-64.284 0-17.76 7.202-33.837 18.844-45.472l89.856-89.6zM895.36 184.128l-120.256-120.128c-13.012-13.041-31.004-21.11-50.88-21.11s-37.868 8.068-50.879 21.108l-120.257 120.129c-12.999 13.044-21.036 31.039-21.036 50.912s8.037 37.868 21.038 50.914l14.91 14.846 89.6-89.92c11.591-11.583 27.599-18.746 45.28-18.746 35.378 0 64.058 28.68 64.058 64.058 0 17.697-7.176 33.718-18.778 45.312l-89.6 89.92 14.848 14.848c13.033 12.995 31.018 21.030 50.88 21.030s37.847-8.035 50.882-21.032l120.254-120.382c12.961-13.037 20.972-31.007 20.972-50.848 0-19.873-8.037-37.869-21.038-50.914z" />
<glyph unicode="&#xe913;" glyph-name="chart" d="M64 960h-64v-960h960v64h-896v896zM384 384h-192v-256h192v256zM640 640h-192v-512h192v512zM704 896v-768h192v768h-192z" />
<glyph unicode="&#xe914;" glyph-name="chat" d="M896 896h-768c-70.605-0.218-127.782-57.395-128-127.979v-448.021c0.218-70.605 57.395-127.782 127.979-128h128.021v-192l256 192h384c70.605 0.218 127.782 57.395 128 127.979v448.021c-0.218 70.605-57.395 127.782-127.979 128zM512 384h-320v64h320v-64zM832 512h-640v64h640v-64zM832 640h-640v64h640v-64z" />
<glyph unicode="&#xe915;" glyph-name="chek" d="M304 64l656 656-112 112-544-544-192 192-112-112z" />
<glyph unicode="&#xe916;" glyph-name="chrome" d="M512 576c0.108 0 0.236 0.001 0.364 0.001 26.744 0 51.566-8.231 72.070-22.298 33.689-23.059 55.792-61.8 55.792-105.702 0-70.692-57.308-128-128-128s-128 57.308-128 128c0 70.613 57.179 127.871 127.761 128zM916.032 585.984c13.919-41.131 21.952-88.505 21.952-137.755 0-0.081 0-0.161 0-0.242 0.001-0.254 0.001-0.569 0.001-0.884 0-234.77-190.318-425.088-425.088-425.088-0.315 0-0.631 0-0.946 0.001h-21.967l144 251.968c55.856 38.236 92.033 101.672 92.033 173.556 0 0.162 0 0.323-0.001 0.485-1.050 29.796-7.562 57.824-18.561 83.471zM153.984 680l146.048-252.032c10.743-99.409 87.358-178.076 184.834-191.867l-52.866-208.133c-198.465 39.452-345.984 212.203-345.984 419.409 0 0.219 0 0.438 0 0.657 0.159 86.117 25.477 166.321 68.996 233.664zM512 873.984c0.24 0 0.523 0.001 0.807 0.001 166.018 0 309.848-95 380.093-233.604l-286.883-2.429c-27.314 14.336-59.536 23.127-93.72 24.058-70.070-0.659-131.7-34.934-169.858-87.385l-152.422 151.391c77.015 90.763 191.17 147.981 318.689 147.981 1.158 0 2.316-0.005 3.472-0.014zM512 960c-282.77 0-512-229.23-512-512s229.23-512 512-512c282.77 0 512 229.23 512 512-0.581 282.536-229.464 511.419-511.944 512z" />
<glyph unicode="&#xe917;" glyph-name="clock" d="M448 320h256v128h-128v192h-128v-320zM512 96c-194.404 0-352 157.596-352 352s157.596 352 352 352c194.404 0 352-157.596 352-352-0.291-194.287-157.713-351.709-351.972-352zM512 0c247.424 0 448 200.576 448 448s-200.576 448-448 448c-247.424 0-448-200.576-448-448 0-0.209-0.001-0.457-0.001-0.705 0-247.035 200.261-447.296 447.296-447.296 0.248 0 0.495 0 0.743 0.001z" />
<glyph unicode="&#xe918;" glyph-name="close" d="M352 192l-96 96 160 160-160 160 96 96 160-160 160 160 96-96-160-160 160-160-96-96-160 160zM512 0c247.424 0 448 200.576 448 448s-200.576 448-448 448c-247.424 0-448-200.576-448-448 0-0.209-0.001-0.457-0.001-0.705 0-247.035 200.261-447.296 447.296-447.296 0.248 0 0.495 0 0.743 0.001z" />
<glyph unicode="&#xe919;" glyph-name="close2" d="M800 832l96-96-288-288 288-288-96-96-288 288-288-288-96 96 288 288-288 288 96 96 288-288z" />
<glyph unicode="&#xe91a;" glyph-name="crown" d="M192-64h640c35.346 0 64 28.654 64 64s-28.654 64-64 64h-640c-35.346 0-64-28.654-64-64s28.654-64 64-64zM192 128h640l96 384c53.019 0 96 42.981 96 96s-42.981 96-96 96c-53.019 0-96-42.981-96-96-0.002-0.25-0.004-0.545-0.004-0.84 0-20.741 6.748-39.906 18.169-55.418l-210.166-167.742-97.984 390.016c38.661 12.991 66.016 48.9 66.016 91.197 0 53.019-42.981 96-96 96s-96-42.981-96-96c0-42.298 27.355-78.206 65.339-91l-97.371-390.214-209.984 168c11.239 15.254 17.988 34.419 17.988 55.16 0 0.295-0.001 0.591-0.004 0.885 0.005 0.319 0.008 0.748 0.008 1.179 0 52.348-42.436 94.784-94.784 94.784-0.43 0-0.86-0.003-1.289-0.009-52.954 0.001-95.935-42.98-95.935-95.999s42.981-96 96-96z" />
<glyph unicode="&#xe91b;" glyph-name="cut" d="M768 640c-70.692 0-128 57.308-128 128s57.308 128 128 128c70.692 0 128-57.308 128-128-0.504-70.489-57.511-127.496-127.952-128zM768 0c-70.692 0-128 57.308-128 128s57.308 128 128 128c70.692 0 128-57.308 128-128-0.504-70.489-57.511-127.496-127.952-128zM768-64c106.039 0 192 85.961 192 192-3.205 61.205-31.925 115.123-75.637 151.73-42.315 36.238-192.331 168.27-192.331 168.27s150.016 131.968 192 168c44.043 36.877 72.763 90.795 75.946 151.478 0.022 106.561-85.939 192.522-191.978 192.522s-192-85.961-192-192c-0.005-0.506-0.008-1.103-0.008-1.702 0-66.497 34.827-124.86 87.235-157.844l-75.195-70.47s-172.032 150.016-204.032 177.984c-88.307 67.304-198.642 109.961-318.632 115.977l422.632-383.945-424-384c121.351 6.051 231.688 48.686 321.414 117.001 30.586 26.935 202.618 176.951 202.618 176.951l75.968-69.952c-53.182-33.453-88.007-91.826-88.007-158.334 0-0.586 0.003-1.171 0.008-1.756-0.001-105.949 85.961-191.911 191.999-191.911z" />
<glyph unicode="&#xe91c;" glyph-name="delete" d="M192 64c0-35.346 28.654-64 64-64h512c35.346 0 64 28.654 64 64v576h-640v-576zM896 832h-192v128h-384v-128h-192c-35.346 0-64-28.654-64-64v-64h896v64c0 35.346-28.654 64-64 64zM384 832v64h256v-64h-256z" />
<glyph unicode="&#xe91d;" glyph-name="demo" d="M384 544l256 128-256 128v-256zM128 448v448h768v-448h-768zM384 128v64h256v-64h-256zM48 64h928c26.365 0.356 47.644 21.635 48 47.966 0.022 0.517 0.034 1.083 0.034 1.652 0 4.436-0.739 8.699-2.099 12.673l-61.934 257.709v512c0.004 0.249 0.006 0.543 0.006 0.838 0 34.887-28.281 63.168-63.168 63.168-0.294 0-0.589-0.002-0.882-0.006h-767.956c-0.249 0.004-0.543 0.006-0.838 0.006-34.887 0-63.168-28.281-63.168-63.168 0-0.294 0.002-0.589 0.006-0.882v-511.956l-62.016-257.984c-1.279-3.694-2.018-7.95-2.018-12.38 0-0.575 0.012-1.148 0.037-1.717-0.006-0.11-0.007-0.337-0.007-0.563 0-26.156 21.204-47.36 47.36-47.36 0.227 0 0.453 0.002 0.679 0.005z" />
<glyph unicode="&#xe91e;" glyph-name="desktop" d="M64 320v512h896v-512h-896zM288 0h448c0.004 0.249 0.006 0.543 0.006 0.838 0 34.887-28.281 63.168-63.168 63.168-0.294 0-0.589-0.002-0.882-0.006h-31.956v128h320c0.249-0.004 0.543-0.006 0.838-0.006 34.887 0 63.168 28.281 63.168 63.168 0 0.294-0.002 0.589-0.006 0.882v575.956c0.004 0.249 0.006 0.543 0.006 0.838 0 34.887-28.281 63.168-63.168 63.168-0.294 0-0.589-0.002-0.882-0.006h-895.956c-0.249 0.004-0.543 0.006-0.838 0.006-34.887 0-63.168-28.281-63.168-63.168 0-0.294 0.002-0.589 0.006-0.882v-575.956c-0.004-0.249-0.006-0.543-0.006-0.838 0-34.887 28.281-63.168 63.168-63.168 0.294 0 0.589 0.002 0.882 0.006h319.956v-128h-32c-0.249 0.004-0.543 0.006-0.838 0.006-34.887 0-63.168-28.281-63.168-63.168 0-0.294 0.002-0.589 0.006-0.882z" />
<glyph unicode="&#xe91f;" glyph-name="dislike" d="M960 384h-368l48-224c-8.927-66.227-31.58-125.776-65.033-177.712-14.813-26.821-44.618-45.901-78.914-46.287-0.734-0.027-1.533-0.043-2.336-0.043-34.109 0-61.76 27.651-61.76 61.76 0 0.803 0.015 1.602 0.046 2.397l-0.003 159.885-176 288v448c-0.004 0.249-0.006 0.543-0.006 0.838 0 34.887 28.281 63.168 63.168 63.168 0.294 0 0.589-0.002 0.882-0.006h399.956c0.014 0 0.031 0 0.047 0 68.798 0 127.641-42.62 151.567-102.898l152.386-409.102c0.004-0.249 0.006-0.543 0.006-0.838 0-34.887-28.281-63.168-63.168-63.168-0.294 0-0.589 0.002-0.882 0.006zM128 448h-64c-0.249-0.004-0.543-0.006-0.838-0.006-34.887 0-63.168 28.281-63.168 63.168 0 0.294 0.002 0.589 0.006 0.882v383.956c-0.004 0.249-0.006 0.543-0.006 0.838 0 34.887 28.281 63.168 63.168 63.168 0.294 0 0.589-0.002 0.882-0.006h63.956c0.249 0.004 0.543 0.006 0.838 0.006 34.887 0 63.168-28.281 63.168-63.168 0-0.294-0.002-0.589-0.006-0.882v-383.956c0.004-0.249 0.006-0.543 0.006-0.838 0-34.887-28.281-63.168-63.168-63.168-0.294 0-0.589 0.002-0.882 0.006z" />
<glyph unicode="&#xe920;" glyph-name="document" d="M576 640v192l192-192h-192zM192 64v768h256v-320h320v-448h-576zM192-64h576c70.489 0.504 127.496 57.511 128 127.952v608.048l-288 288h-416c-70.489-0.504-127.496-57.511-128-127.952v-768.048c0.504-70.489 57.511-127.496 127.952-128z" />
<glyph unicode="&#xe921;" glyph-name="down" d="M512 0l320 320-89.984 89.984-166.016-166.016v652.032h-128v-652.032l-166.016 166.016-89.984-89.984z" />
<glyph unicode="&#xe922;" glyph-name="download" d="M192 0h640c70.489 0.504 127.496 57.511 128 127.952v192.048h-128v-192h-640v192h-128v-192c0.504-70.489 57.511-127.496 127.952-128zM512 256l256 256h-192v448h-128v-448h-192z" />
<glyph unicode="&#xe923;" glyph-name="dropdown" d="M844.032 768l-332.032-332.032-331.968 332.032-116.032-128 448-448 448 448z" />
<glyph unicode="&#xe924;" glyph-name="dropleft" d="M768 115.968l-331.968 332.032 331.968 331.968-128 116.032-448-448 448-448z" />
<glyph unicode="&#xe925;" glyph-name="dropright" d="M192 779.968l332.032-331.968-332.032-332.032 128-115.968 448 448-448 448z" />
<glyph unicode="&#xe926;" glyph-name="dropup" d="M180.032 192l331.968 331.968 332.032-331.968 115.968 128-448 448-448-448z" />
<glyph unicode="&#xe927;" glyph-name="edit" d="M937.984 790.016l-147.968 147.968c-13.913 13.602-32.968 21.994-53.984 21.994s-40.071-8.392-53.998-22.008l-111.986-111.986 256-256 112 112c13.587 13.919 21.968 32.972 21.968 53.983 0 21.043-8.407 40.122-22.046 54.063zM0 256v-256h256l480 480-256 256zM128 64c0.004 0.249 0.006 0.543 0.006 0.838 0 34.887-28.281 63.168-63.168 63.168-0.294 0-0.589-0.002-0.882-0.006l0.044 128 192-192h-128z" />
<glyph unicode="&#xe928;" glyph-name="education" d="M192 512v-160l352-160 352 160v160l-352-160zM128 250.112v392l416-194.112 480 224-480 224-480-224v-421.888l-64-122.112v-64c9.329-37.612 42.795-65.051 82.67-65.051 4.706 0 9.323 0.382 13.821 1.117 3.516-0.735 8.133-1.117 12.839-1.117 39.875 0 73.341 27.439 82.547 64.466l0.123 64.585z" />
<glyph unicode="&#xe929;" glyph-name="enter" d="M448 192l256 256-256 256v-192h-384v-128h384v-192zM320-64h512c70.489 0.504 127.496 57.511 128 127.952v768.048c-0.504 70.489-57.511 127.496-127.952 128h-512.048c-70.489-0.504-127.496-57.511-128-127.952v-128.048h128v128h512v-768h-512v128h-128v-128c0.504-70.489 57.511-127.496 127.952-128z" />
<glyph unicode="&#xe92a;" glyph-name="expand" d="M512 896v-128h230.016l-230.016-230.016 89.984-89.984 230.016 230.016v-230.016h128v448h-448zM422.016 448l-230.016-230.016v230.016h-128v-448h448v128h-230.016l230.016 230.016z" />
<glyph unicode="&#xe92b;" glyph-name="export" d="M448 192h128v512h192l-256 256-256-256h192v-512zM128-64h768c35.346 0 64 28.654 64 64v576h-256v-128h128v-384h-640v384h128v128h-256v-576c0-35.346 28.654-64 64-64z" />
<glyph unicode="&#xe92c;" glyph-name="facebook" d="M384 0h192v448h192v192h-192v64c-0.004 0.249-0.006 0.543-0.006 0.838 0 34.887 28.281 63.168 63.168 63.168 0.294 0 0.589-0.002 0.882-0.006h127.956v192h-128c-0.228 0.001-0.499 0.001-0.769 0.001-140.961 0-255.232-114.271-255.232-255.232 0-0.27 0-0.541 0.001-0.811v-63.958h-128v-192h128v-448z" />
<glyph unicode="&#xe92d;" glyph-name="fire" d="M385.984 960c0-344-321.984-380.032-321.984-656 0-182.016 190.016-350.016 382.016-368-104.858 72.277-176.272 186.615-189.858 318.114 1.754 69.8 27.982 131.241 70.084 178.142s43.742-88.256 101.79-88.256c33.984 0 110.016 30.016 52.032 296 122.825-99.157 202.312-247.754 207.975-415.075-7.654-106.609-32.692-204.532-72.284-294.612 152.245 57.654 280.245 181.686 280.245 435.702 0 185.984-241.984 469.952-510.016 593.984z" />
<glyph unicode="&#xe92e;" glyph-name="firefox" d="M512-64c282.582 0.249 511.563 229.384 511.563 512 0 183.408-96.437 344.293-241.37 434.712 30.666-69.946 49.81-153.249 49.81-241.022 0-0.594-0.001-1.188-0.003-1.781 0-247.908-120-447.908-320-447.908-57.588 2.588-107.633 32.687-137.586 77.385l17.586 0.631c96 0 174.016 94.016 246.016 94.016 0.941 4.198 1.48 9.018 1.48 13.965 0 36.795-29.829 66.624-66.624 66.624-3.117 0-6.185-0.214-9.188-0.628-49.7-0.025-71.652-59.993-153.7-59.993-54.697 2.253-99.297 42.747-107.879 95.342-0.101 1.001-0.108 1.405-0.108 1.81 0 15.887 10.985 29.209 25.773 32.785 152.23 50.031 282.214 202.031 248.23 236.079-7.684 6.237-17.584 10.014-28.367 10.014-0.58 0-1.157-0.011-1.732-0.033-13.933 0.002-27.885-4.030-43.885-4.030-20.865 0.402-38.847 12.353-47.856 29.71-7.713 13.453-12.177 29.216-12.177 46.022 0 0.105 0 0.211 0.001 0.316 4.593 48.012 20.384 91.58 44.711 129.1-96.679-1.117-166.695-129.117-166.695-129.117h-112c-40.54 30.953-69.366 75.448-79.769 126.636-35.962-42.291-59.298-97.343-64.165-157.611 0.504-29.271 6.33-56.002 16.467-80.495l-0.533-0.529c-50.052-76.893-79.868-170.951-80-271.965 0.581-282.571 229.464-511.453 511.944-512.035z" />
<glyph unicode="&#xe92f;" glyph-name="foursquare" d="M654.016 384h-150.016c-33.231-0.43-63.383-13.264-86.114-34.073l-161.886-157.927v576h497.984l-33.984-128h-272c-35.346 0-64-28.654-64-64s28.654-64 64-64h240zM880 865.984c-13.081 18.273-34.24 30.039-58.146 30.039-0.641 0-1.279-0.008-1.916-0.025l-595.938 0.002c-52.717-0.746-95.254-43.283-95.999-95.929l-0.001-722.055c0.006-31.724 18.626-59.098 45.532-71.795 9.321-4.006 19.607-6.216 30.41-6.216 21.057 0 40.153 8.397 54.121 22.026l245.936 233.969h169.984c47.874 0.481 87.999 33.098 99.865 77.286l120.167 466.714c1.279 3.699 2.017 7.962 2.017 12.398 0 0.569-0.012 1.135-0.036 1.698 0.058 1.032 0.089 2.334 0.089 3.645 0 18.193-6.044 34.974-16.233 48.445z" />
<glyph unicode="&#xe930;" glyph-name="gplus" d="M832 384h64v128h128v64h-128v128h-64v-128h-128v-64h128v-128zM352 128c194.287 0.291 351.709 157.713 352 351.972 0.054 1.633 0.084 3.519 0.084 5.413 0 9.395-0.752 18.615-2.199 27.602l-381.885-0.987v-128h233.984c-36.804-76.294-113.556-128-202.386-128-123.712 0-224 100.288-224 224s100.288 224 224 224c0.141 0 0.282 0 0.424 0 0.381 0.003 0.858 0.004 1.335 0.004 45.167 0 87.010-14.235 121.287-38.463l91.373 92.474c-58.319 46.107-132.913 73.966-214.012 73.984-194.408 0-352.004-157.596-352.004-352s157.596-352 352-352z" />
<glyph unicode="&#xe931;" glyph-name="group" d="M572.16 318.464c53.551 29.257 89.267 85.18 89.267 149.444 0 1.461-0.018 2.918-0.055 4.371 0.157 2.401 0.245 5.46 0.245 8.539 0 84.61-65.885 153.831-149.15 159.158-84.17-5.358-150.023-74.566-150.023-159.155 0-3.103 0.089-6.186 0.263-9.245-0.052-0.814-0.070-2.271-0.070-3.732 0-64.265 35.716-120.187 88.382-149.001-14.283-107.643-195.019-98.491-195.019-195.131v-59.712h512v59.712c0 96.64-180.736 87.488-195.84 194.752zM828.16 510.464c53.551 29.257 89.267 85.18 89.267 149.444 0 1.461-0.018 2.918-0.055 4.371 0.157 2.401 0.245 5.46 0.245 8.539 0 84.61-65.885 153.831-149.15 159.158-72.754-3.411-131.73-56.324-144.45-125.432 80.219-47.735 133.376-133.476 133.376-231.634 0-1.023-0.006-2.045-0.017-3.065 0.002-0.030 0.002-0.249 0.002-0.468 0-60.754-19.555-116.941-52.714-162.609l14.762-6.24c29.586-13.84 55.027-29.359 78.536-47.283l226.040 0.755v59.712c0 96.64-180.736 87.488-195.84 194.752zM318.848 309.568c-32.606 44.868-52.161 101.055-52.161 161.809 0 0.219 0 0.438 0.001 0.657-0.010 0.831-0.016 1.853-0.016 2.876 0 98.157 53.157 183.899 132.255 230.009-11.604 70.754-70.613 123.676-142.582 127.068-84.048-5.369-149.901-74.577-149.901-159.166 0-3.103 0.089-6.186 0.263-9.245-0.052-0.814-0.070-2.271-0.070-3.732 0-64.265 35.716-120.187 88.382-149.001-14.283-107.643-195.019-98.491-195.019-195.131v-59.712h227.072c22.494 17.172 47.957 32.692 74.987 45.434z" />
<glyph unicode="&#xe932;" glyph-name="health" d="M512 0c51.963 9.883 96.302 37.231 127.696 75.585l308.336 334.399 32 38.016h-228.032l-176-256-192 416-89.984-160h-241.984c8.507-14.879 19.183-27.472 31.767-37.83l300.201-334.202c31.698-38.737 76.037-66.085 126.65-75.753zM588.032 336l115.968 176h300.032c12.618 27.986 19.97 60.67 19.97 95.071 0 0.327-0.001 0.653-0.002 0.98 0.002 0.311 0.003 0.74 0.003 1.168 0 158.386-128.398 286.784-286.784 286.784-0.428 0-0.857-0.001-1.285-0.003-90.204-0.85-170.562-42.562-223.516-107.503-53.789 64.941-134.147 106.654-224.275 107.502-0.505 0.003-0.933 0.004-1.361 0.004-158.386 0-286.784-128.398-286.784-286.784 0-0.428 0.001-0.857 0.003-1.285-0.001-0.163-0.001-0.434-0.001-0.705 0-34.461 7.375-67.2 20.633-96.723l235.368 1.495 128 256z" />
<glyph unicode="&#xe933;" glyph-name="heart" d="M480 0c15.275 0.016 28.921 6.98 37.949 17.901l366.083 440.083c47.109 46.394 76.297 110.871 76.297 182.165 0 141.173-114.443 255.616-255.616 255.616-96.522 0-180.549-53.498-224.046-132.46-44.857 78.807-128.791 132.184-225.192 132.184-141.137 0-255.552-114.415-255.552-255.552 0-71.193 29.112-135.586 76.080-181.925l366.044-440.028c9.082-10.988 22.7-17.947 37.946-17.984z" />
<glyph unicode="&#xe934;" glyph-name="heart2" d="M480 121.984l-331.968 398.016c-0.819 2.933-3.083 5.197-5.956 6.002-28.42 29.568-45.929 69.725-46.076 113.969-0.001 0.201-0.001 0.404-0.001 0.608 0 88.083 71.405 159.488 159.488 159.488 60.474 0 113.087-33.658 140.128-83.263 15.88-30.753 46.585-50.851 81.985-50.851 0.844 0 1.685 0.011 2.524 0.034 0.61-0.024 1.474-0.036 2.34-0.036 35.4 0 66.105 20.098 81.328 49.507 27.717 50.884 80.294 84.489 140.721 84.489 88.083 0 159.488-71.405 159.488-159.488 0-0.161 0-0.323-0.001-0.484 0.005-0.43 0.008-0.967 0.008-1.505 0-44.18-18.399-84.062-47.953-112.402l-6.071-6.068zM480 0c15.275 0.016 28.921 6.98 37.949 17.901l366.083 440.083c47.109 46.394 76.297 110.871 76.297 182.165 0 141.173-114.443 255.616-255.616 255.616-96.522 0-180.549-53.498-224.046-132.46-44.857 78.807-128.791 132.184-225.192 132.184-141.137 0-255.552-114.415-255.552-255.552 0-71.193 29.112-135.586 76.080-181.925l366.044-440.028c9.082-10.988 22.7-17.947 37.946-17.984z" />
<glyph unicode="&#xe935;" glyph-name="hide" d="M904 280c35.801 30.588 67.883 63.299 96.908 98.618 14.826 20.19 23.075 43.807 23.075 69.35s-8.249 49.16-22.229 68.331c-111.524 151.696-288.987 249.773-489.448 251.699-1.337 0.011-2.555 0.016-3.775 0.016-29.899 0-59.116-2.917-87.383-8.481l60.836-57.516c10.048 0 20.032 1.984 30.016 1.984 0.228 0.001 0.499 0.001 0.769 0.001 140.961 0 255.232-114.271 255.232-255.232 0-0.27 0-0.541-0.001-0.811 0-9.942-1.984-19.99-1.984-29.974zM512 192c-0.228-0.001-0.499-0.001-0.769-0.001-140.961 0-255.232 114.271-255.232 255.232 0 0.27 0 0.541 0.001 0.811 0.688 62.538 23.246 119.72 60.376 164.351l91.624-92.393c-14.98-18.836-24.035-42.968-24.035-69.215 0-0.979 0.013-1.956 0.038-2.929 0.501-70.345 57.508-127.352 127.949-127.856 0.877-0.022 1.854-0.035 2.833-0.035 26.247 0 50.379 9.054 69.444 24.21l91.803-92.208c-44.228-36.776-101.437-59.315-163.891-59.967zM928 0l64 64-832 832-64-64 136-136c-83.366-46.18-153.262-106.516-208.832-178.48-14.902-20.393-23.151-44.009-23.151-69.552s8.249-49.16 22.229-68.331c111.536-151.671 288.997-249.725 489.45-251.635 86.473 0.642 168.196 18.97 242.251 51.523z" />
<glyph unicode="&#xe936;" glyph-name="home" d="M1011.2 564.608l-499.2 331.392-499.2-331.392c-7.748-5.029-12.8-13.639-12.8-23.428 0-0.044 0-0.087 0-0.131-0.002-0.127-0.004-0.285-0.004-0.442 0-15.8 12.808-28.608 28.608-28.608 0.091 0 0.182 0 0.273 0.001h163.122v-512h256v256h128v-256h256v512h163.136c0.077-0.001 0.168-0.001 0.26-0.001 15.8 0 28.608 12.808 28.608 28.608 0 0.158-0.001 0.316-0.004 0.473 0 0.013 0.001 0.057 0.001 0.1 0 9.789-5.053 18.399-12.692 23.362z" />
<glyph unicode="&#xe937;" glyph-name="import" d="M576 960h-128v-576h-192l256-256 256 256h-192v576zM64-64h896c35.346 0 64 28.654 64 64v640h-320v-128h192v-448h-768v448h192v128h-320v-640c0-35.346 28.654-64 64-64z" />
<glyph unicode="&#xe938;" glyph-name="infinity" d="M995.904 618.944c-17.276 35.312-40.797 65.034-69.396 88.869-25.251 20.897-54.684 36.893-86.859 46.549-26.614 8.264-55.246 13.041-84.904 13.633-0.883 0.010-1.558 0.013-2.233 0.013-27.857 0-54.496-5.216-78.992-14.725-24.437-9.495-46.835-21.775-67.29-36.574-19.745-14.219-37.621-30.936-53.143-49.675q-23.55-28.826-41.086-55.194c-13.931 20.838-27.312 38.674-41.554 55.769-15.014 18.166-32.849 34.883-52.586 49.128-20.401 14.725-42.773 27-66.616 36.343-25.088 9.712-51.747 14.929-79.626 14.929-0.721 0-1.442-0.003-2.161-0.010-29.777-0.614-58.318-5.39-85.272-13.767-31.803-9.5-61.283-25.5-86.554-46.406-28.663-23.82-52.211-53.548-68.78-87.321-18.578-39.316-29.021-83.589-29.021-130.301 0-3.588 0.062-7.162 0.184-10.72-0.124-2.542-0.186-6.136-0.186-9.744 0-46.671 10.444-90.902 29.124-130.484 16.41-33.473 39.919-63.204 68.538-87.003 25.285-20.937 54.763-36.956 86.99-46.615 26.531-8.193 55.072-12.944 84.628-13.567 0.923-0.011 1.621-0.015 2.32-0.015 27.878 0 54.537 5.216 79.055 14.726 24.409 9.461 46.789 21.743 67.206 36.564 19.605 14.081 37.414 30.427 53.077 48.669 14.646 16.905 28.127 35.109 40.161 54.312 14.21-19.25 27.627-37.471 42.292-54.591 15.524-18.024 33.374-34.371 52.977-48.429 20.48-14.892 42.886-27.178 66.807-36.418 25.011-9.681 51.65-14.897 79.507-14.897 0.675 0 1.35 0.003 2.024 0.009 29.787 0.636 58.327 5.386 85.302 13.705 31.732 9.552 61.164 25.568 86.402 46.469 28.632 23.831 52.157 53.557 68.717 87.32 18.689 39.455 29.198 83.898 29.198 130.796 0 3.415-0.056 6.817-0.166 10.205 0.119 2.52 0.179 6.061 0.179 9.617 0 46.737-10.417 91.040-29.057 130.716zM364.8 356.352c-25.654-22.505-59.468-36.263-96.493-36.352-0.106 0-0.21 0-0.314 0-38.118 0-72.62 15.485-97.557 40.508-26.542 28.149-42.852 66.192-42.852 108.043 0 4.029 0.151 8.022 0.448 11.975-0.299 2.914-0.452 6.923-0.452 10.969 0 41.838 16.312 79.865 42.924 108.070 24.83 24.948 59.298 40.435 97.383 40.435 0.141 0 0.282 0 0.423-0.001 37.017-0.126 70.82-13.876 96.661-36.498 35.281-33.84 63.511-75.054 82.19-121.158-18.665-50.796-46.898-92.013-82.236-125.872zM853.312 360.512c-24.957-25.024-59.47-40.508-97.599-40.512-37.045 0.089-70.858 13.847-96.68 36.496-35.353 33.796-63.597 75.025-82.202 121.174 18.612 50.829 46.855 92.077 82.24 125.919 25.791 22.605 59.606 36.342 96.627 36.411 0.099 0 0.199 0 0.299 0 38.133 0 72.644-15.512 97.565-40.57 26.543-28.133 42.854-66.159 42.854-107.994 0-4.024-0.151-8.013-0.447-11.962 0.297-2.9 0.448-6.894 0.448-10.922 0-41.852-16.31-79.894-42.921-108.118z" />
<glyph unicode="&#xe939;" glyph-name="info" d="M512 576h128v128h-128v-128zM512 0c-247.424 0-448 200.576-448 448s200.576 448 448 448c247.424 0 448-200.576 448-448 0-0.209 0.001-0.457 0.001-0.705 0-247.035-200.261-447.296-447.296-447.296-0.248 0-0.495 0-0.743 0.001zM508.032 192h131.968v64h-94.016l40 163.968c1.762 5.98 2.775 12.851 2.775 19.959 0 16.617-5.54 31.94-14.875 44.222-13.527 16.961-34.402 27.852-57.821 27.852-0.011 0-0.022 0-0.034 0h-132.030v-64h94.016l-40-164.032c-1.755-5.966-2.764-12.82-2.764-19.91 0-16.641 5.561-31.982 14.927-44.268 13.529-16.926 34.381-27.79 57.771-27.79 0.029 0 0.058 0 0.087 0zM512-64c282.77 0 512 229.23 512 512s-229.23 512-512 512c-282.77 0-512-229.23-512-512 0.545-282.55 229.45-511.455 511.948-512z" />
<glyph unicode="&#xe93a;" glyph-name="info2" d="M512 576v128h128v-128h-128zM508.032 192c-0.024 0-0.053 0-0.082 0-23.39 0-44.242 10.863-57.787 27.82-9.321 12.244-14.864 27.563-14.864 44.176 0 7.112 1.016 13.988 2.911 20.488l39.807 163.515h-94.016v64h132.032c0.009 0 0.021 0 0.032 0 23.418 0 44.293-10.89 57.837-27.882 9.346-12.263 14.905-27.609 14.905-44.253 0-7.085-1.007-13.935-2.886-20.414l-39.936-163.451h94.016v-64h-131.968zM512-64c282.77 0 512 229.23 512 512s-229.23 512-512 512c-282.77 0-512-229.23-512-512 0.545-282.55 229.45-511.455 511.948-512z" />
<glyph unicode="&#xe93b;" glyph-name="instagram" d="M768 896h-512c-105.907-0.326-191.674-86.093-192-191.969v-512.031c0.326-105.907 86.093-191.674 191.969-192h512.031c105.907 0.326 191.674 86.093 192 191.969v512.031c-0.326 105.907-86.093 191.674-191.969 192zM512 576c70.692 0 128-57.308 128-128s-57.308-128-128-128c-70.692 0-128 57.308-128 128s57.308 128 128 128zM832 128h-640v384h106.432c-6.305-19.066-10.096-41.031-10.43-63.834-0.002-123.878 100.286-224.166 223.998-224.166s224 100.288 224 224c-0.336 22.969-4.127 44.934-10.874 65.561l106.874-1.561v-384zM832 640h-128v128h128v-128z" />
<glyph unicode="&#xe93c;" glyph-name="key" d="M704 960c-0.849 0.008-1.852 0.013-2.857 0.013-175.141 0-317.12-141.979-317.12-317.12 0-39.819 7.339-77.924 20.738-113.036l-404.761-401.856v-192h192v64h64l64 64v64h64l212.032 212.032c32.296-12.040 69.612-19.007 108.554-19.007 176.448 0 319.488 143.040 319.488 319.488s-143.040 319.488-319.488 319.488c-0.206 0-0.412 0-0.618-0.001zM800 640c-53.019 0-96 42.981-96 96s42.981 96 96 96c53.019 0 96-42.981 96-96s-42.981-96-96-96z" />
<glyph unicode="&#xe93d;" glyph-name="label" d="M960 960h-352l-608-608 416-416 608 608v352c0.069 1.085 0.109 2.352 0.109 3.629 0 33.402-27.078 60.48-60.48 60.48-1.277 0-2.544-0.040-3.801-0.118zM800 640c-52.479 1.322-94.678 43.521-95.998 95.876-0.002 53.144 42.978 96.124 95.998 96.124s96-42.981 96-96c-1.322-52.479-43.521-94.678-95.876-95.998z" />
<glyph unicode="&#xe93e;" glyph-name="left" d="M384 128l89.984 89.984-165.952 166.016h651.968v128h-651.968l165.952 166.016-89.984 89.984-320-320z" />
<glyph unicode="&#xe93f;" glyph-name="like" d="M64-64h64c0.249-0.004 0.543-0.006 0.838-0.006 34.887 0 63.168 28.281 63.168 63.168 0 0.294-0.002 0.589-0.006 0.882v383.956c0.004 0.249 0.006 0.543 0.006 0.838 0 34.887-28.281 63.168-63.168 63.168-0.294 0-0.589-0.002-0.882-0.006h-63.956c-0.249 0.004-0.543 0.006-0.838 0.006-34.887 0-63.168-28.281-63.168-63.168 0-0.294 0.002-0.589 0.006-0.882v-383.956c-0.004-0.249-0.006-0.543-0.006-0.838 0-34.887 28.281-63.168 63.168-63.168 0.294 0 0.589 0.002 0.882 0.006zM320-64h400c0.014 0 0.031 0 0.047 0 68.798 0 127.641 42.62 151.567 102.898l152.386 409.102c0.004 0.249 0.006 0.543 0.006 0.838 0 34.887-28.281 63.168-63.168 63.168-0.294 0-0.589-0.002-0.882-0.006h-367.956l48 224c-8.927 66.227-31.58 125.776-65.033 177.712-14.813 26.821-44.618 45.901-78.914 46.287-0.734 0.027-1.533 0.043-2.336 0.043-34.109 0-61.76-27.651-61.76-61.76 0-0.803 0.015-1.602 0.046-2.397l-0.003-159.885-176-288v-448c-0.004-0.249-0.006-0.543-0.006-0.838 0-34.887 28.281-63.168 63.168-63.168 0.294 0 0.589 0.002 0.882 0.006z" />
<glyph unicode="&#xe940;" glyph-name="link" d="M576 896v-128h165.504l-402.752-402.752 90.496-90.496 402.752 402.752v-165.504h128v384h-384zM704 128h-512v512h256v128h-256c-70.605-0.218-127.782-57.395-128-127.979v-512.021c0.218-70.605 57.395-127.782 127.979-128h512.021c70.605 0.218 127.782 57.395 128 127.979v256.021h-128v-256z" />
<glyph unicode="&#xe941;" glyph-name="linkedin" d="M742.016 665.984c2.514 0.109 5.462 0.172 8.425 0.172 59.822 0 113.709-25.411 151.457-66.027 36.739-48.603 58.774-109.878 58.774-176.299 0-6.989-0.244-13.92-0.724-20.787l0.052-339.043h-192v320c0.28 3.766 0.439 8.159 0.439 12.588 0 30.484-7.55 59.204-20.881 84.394-13.141 18.74-35.619 31.5-61.078 31.5-2.982 0-5.924-0.175-8.815-0.516-1.060 0.109-2.711 0.152-4.372 0.152-43.519 0-80.165-29.429-91.123-69.471-4.087-12.357-6.356-25.823-6.356-39.82 0-2.413 0.067-4.809 0.2-7.189l-0.015-331.638h-192v576h192v-70.016c10.102 16.6 20.661 30.968 32.324 44.347 14.408 13.491 31.627 24.927 50.561 33.16 24.321 11.845 51.589 18.513 80.415 18.513 0.955 0 1.909-0.007 2.86-0.022zM92.032 731.968c17.444-17.286 41.459-27.968 67.968-27.968-0.156-0.001-0.341-0.001-0.526-0.001-26.344 0-50.191 10.69-67.441 27.968zM64 64v576h192v-576h-192z" />
<glyph unicode="&#xe942;" glyph-name="list" d="M1024 672c0-17.673-14.327-32-32-32h-768c-17.673 0-32 14.327-32 32v64c0 17.673 14.327 32 32 32h768c17.673 0 32-14.327 32-32v-64zM1024 416c0-17.673-14.327-32-32-32h-768c-17.673 0-32 14.327-32 32v64c0 17.673 14.327 32 32 32h768c17.673 0 32-14.327 32-32v-64zM1024 160c0-17.673-14.327-32-32-32h-768c-17.673 0-32 14.327-32 32v64c0 17.673 14.327 32 32 32h768c17.673 0 32-14.327 32-32v-64zM128 672c0-17.673-14.327-32-32-32h-64c-17.673 0-32 14.327-32 32v64c0 17.673 14.327 32 32 32h64c17.673 0 32-14.327 32-32v-64zM128 416c0-17.673-14.327-32-32-32h-64c-17.673 0-32 14.327-32 32v64c0 17.673 14.327 32 32 32h64c17.673 0 32-14.327 32-32v-64zM128 160c0-17.673-14.327-32-32-32h-64c-17.673 0-32 14.327-32 32v64c0 17.673 14.327 32 32 32h64c17.673 0 32-14.327 32-32v-64z" />
<glyph unicode="&#xe943;" glyph-name="mail" d="M896 832h-768c-70.605-0.218-127.782-57.395-128-127.979v-512.021c0.218-70.605 57.395-127.782 127.979-128h768.021c70.605 0.218 127.782 57.395 128 127.979v512.021c-0.218 70.605-57.395 127.782-127.979 128zM918.656 214.592c6.027-5.827 9.769-13.985 9.769-23.017 0-17.673-14.327-32-32-32-9.032 0-17.19 3.742-23.009 9.76l-233.417 233.417-128-128-128 128-233.344-233.408c-5.749-5.558-13.59-8.983-22.231-8.983-17.673 0-32 14.327-32 32 0 8.641 3.425 16.482 8.991 22.24l233.335 233.399-233.344 233.344c-6.027 5.827-9.769 13.985-9.769 23.017 0 17.673 14.327 32 32 32 9.032 0 17.19-3.742 23.009-9.76l361.353-361.353 361.408 361.344c5.827 6.027 13.985 9.769 23.017 9.769 17.673 0 32-14.327 32-32 0-9.032-3.742-17.19-9.76-23.009l-233.417-233.353z" />
<glyph unicode="&#xe944;" glyph-name="megaphone" d="M273.984 0c7.289 0.387 14.122 1.81 20.528 4.125 25.064 7.544 43.361 30.872 43.361 58.475 0 7.675-1.415 15.020-3.998 21.788l-77.875 235.613v384h-56c-0.97 0.017-2.115 0.027-3.261 0.027-93.672 0-172.119-65.19-192.446-152.677-2.452-12.543-3.903-25.638-4.285-39 0.57-78.665 47.559-145.866 114.794-175.859l99.214-292.522c7.892-25.651 31.378-43.974 59.143-43.974 0.29 0 0.579 0.002 0.868 0.006zM928 64c17.475 0.485 31.515 14.525 31.999 31.955l0.001 832.045c-0.485 17.475-14.525 31.515-31.955 31.999-7.475-0.134-14.358-2.358-20.165-6.106l-195.881-147.877c-84.209-63.589-190.611-101.892-305.955-102.016h-22.045v-384h22.016c115.372-0.129 221.774-38.431 307.28-102.953l194.736-147.095c5.661-3.635 12.546-5.838 19.938-5.952z" />
<glyph unicode="&#xe945;" glyph-name="microphone" d="M512 320c70.489 0.504 127.496 57.511 128 127.952v384.048c0 70.692-57.308 128-128 128s-128-57.308-128-128v-384c0.504-70.489 57.511-127.496 127.952-128zM320-64h384v64c-70.489 0.504-127.496 57.511-128 127.952 147.563 34.196 255.9 164.456 256 320.037 0 35.357-28.654 64.011-64 64.011s-64-28.654-64-64c0-106.039-85.961-192-192-192s-192 85.961-192 192c0 35.346-28.654 64-64 64s-64-28.654-64-64c0.1-155.592 108.437-285.852 253.786-319.567 1.711-70.921-55.297-127.929-125.737-128.432l-0.048-64z" />
<glyph unicode="&#xe946;" glyph-name="minus" d="M512 896c-247.424 0-448-200.576-448-448s200.576-448 448-448c247.424 0 448 200.576 448 448s-200.576 448-448 448zM768 384h-512v128h512v-128z" />
<glyph unicode="&#xe947;" glyph-name="mobile" d="M704 960h-384c-70.605-0.218-127.782-57.395-128-127.979v-768.021c0.218-70.605 57.395-127.782 127.979-128h384.021c70.605 0.218 127.782 57.395 128 127.979v768.021c-0.218 70.605-57.395 127.782-127.979 128zM384 888h256v-48h-256v48zM512-32c-35.346 0-64 28.654-64 64s28.654 64 64 64c35.346 0 64-28.654 64-64s-28.654-64-64-64zM768 128h-512v640h512v-640z" />
<glyph unicode="&#xe948;" glyph-name="move" d="M1024 448l-256 192v-128h-192v192h128l-192 256-192-256h128v-192h-192v128l-256-192 256-192v128h192v-192h-128l192-256 192 256h-128v192h192v-128z" />
<glyph unicode="&#xe949;" glyph-name="moveble" d="M128 960c-70.692 0-128-57.308-128-128s57.308-128 128-128c70.692 0 128 57.308 128 128s-57.308 128-128 128zM512 960c-70.692 0-128-57.308-128-128s57.308-128 128-128c70.692 0 128 57.308 128 128s-57.308 128-128 128zM896 704c70.692 0 128 57.308 128 128s-57.308 128-128 128c-70.692 0-128-57.308-128-128s57.308-128 128-128zM128 576c-70.692 0-128-57.308-128-128s57.308-128 128-128c70.692 0 128 57.308 128 128s-57.308 128-128 128zM512 576c-70.692 0-128-57.308-128-128s57.308-128 128-128c70.692 0 128 57.308 128 128s-57.308 128-128 128zM896 576c-70.692 0-128-57.308-128-128s57.308-128 128-128c70.692 0 128 57.308 128 128s-57.308 128-128 128zM128 192c-70.692 0-128-57.308-128-128s57.308-128 128-128c70.692 0 128 57.308 128 128s-57.308 128-128 128zM512 192c-70.692 0-128-57.308-128-128s57.308-128 128-128c70.692 0 128 57.308 128 128s-57.308 128-128 128zM896 192c-70.692 0-128-57.308-128-128s57.308-128 128-128c70.692 0 128 57.308 128 128s-57.308 128-128 128z" />
<glyph unicode="&#xe94a;" glyph-name="opera" d="M510.016 64c-182.016 0-190.016 232-190.016 393.984 0 192 20.032 374.016 190.016 374.016 168 0 193.984-185.984 193.984-374.016 0-161.984-9.984-393.984-193.984-393.984zM510.016-64c267.968 0 449.984 246.016 449.984 515.968 0 308.032-192 508.032-449.984 508.032-260.032 0-446.016-201.984-446.016-508.032 0-269.952 182.016-515.968 446.016-515.968z" />
<glyph unicode="&#xe94b;" glyph-name="pin" d="M480 448c-88.366 0-160 71.634-160 160s71.634 160 160 160c88.366 0 160-71.634 160-160-0.254-88.263-71.737-159.746-159.976-160zM480-64c41.984 0 96 89.984 166.016 192 83.968 123.968 185.984 297.984 185.984 472 0.018 1.318 0.028 2.875 0.028 4.434 0 195.133-157.18 353.555-351.837 355.565-195.038-2.010-352.218-160.431-352.218-355.565 0-1.559 0.010-3.116 0.030-4.67-0.002-173.78 102.014-347.796 185.982-471.764 70.016-102.016 124.032-192 166.016-192z" />
<glyph unicode="&#xe94c;" glyph-name="pinterest" d="M512 960c-0.167 0-0.364 0-0.561 0-282.522 0-511.552-229.030-511.552-511.552 0-208.187 124.364-387.328 302.853-467.183 3.033 3.974 2.912 10.161 2.912 16.376 0 34.839 3.781 68.795 10.954 101.48 9.409 38.864 65.409 276.88 65.409 276.88-11.353 22.666-18 49.384-18 77.655 0 0.825 0.006 1.648 0.017 2.47-0.723 4.8-1.136 10.485-1.136 16.266 0 59.4 43.531 108.634 100.432 117.539 38.616-0.122 69.296-30.93 69.296-68.905 0-3.182-0.215-6.314-0.633-9.382-11.83-70.184-27.104-131.466-46.535-190.867 0.867 3.076-0.134-3.967-0.134-11.244 0-42.91 34.786-77.696 77.696-77.696 1.775 0 3.536 0.060 5.281 0.177 97.747-0.013 161.747 123.955 161.747 271.987 0.076 2.010 0.119 4.372 0.119 6.743 0 105.19-85.274 190.464-190.464 190.464-7.642 0-15.178-0.45-22.585-1.325-2.142 0.223-5.707 0.301-9.29 0.301-133.573 0-241.856-108.283-241.856-241.856 0-0.818 0.004-1.635 0.012-2.451-0.146-2.313-0.229-5.162-0.229-8.032 0-35.85 12.934-68.679 34.39-94.076 4.845-4.216 7.996-10.668 7.996-17.855 0-3.611-0.795-7.035-2.22-10.109-1.922-9.835-7.938-31.851-9.922-39.851-1.407-8.94-9.056-15.696-18.283-15.696-2.793 0-5.441 0.619-7.815 1.727-62.881 34.574-104.865 100.487-104.865 176.205 0 6.966 0.355 13.848 1.049 20.631-0.071 145.132 121.913 319.148 365.945 319.148 5.459 0.347 11.837 0.545 18.261 0.545 164.973 0 299.453-130.558 305.753-293.988 0.018-200.573-111.982-350.589-275.95-350.589-1.253-0.038-2.727-0.060-4.207-0.060-50.332 0-94.79 25.152-121.49 63.574s-30.336-117.53-36.288-141.53c-12.59-41.161-30.292-77.024-52.798-109.288 44.442-12.502 94.605-20.493 146.615-20.632 282.841 0 512.071 229.23 512.071 512s-229.23 512-512 512z" />
<glyph unicode="&#xe94d;" glyph-name="plus" d="M512 896c-247.424 0-448-200.576-448-448s200.576-448 448-448c247.424 0 448 200.576 448 448s-200.576 448-448 448zM768 384h-192v-192h-128v192h-192v128h192v192h128v-192h192v-128z" />
<glyph unicode="&#xe94e;" glyph-name="popup" d="M832 896h-512c-70.605-0.218-127.782-57.395-128-127.979v-448.021c0.218-70.605 57.395-127.782 127.979-128h512.021c70.605 0.218 127.782 57.395 128 127.979v448.021c-0.218 70.605-57.395 127.782-127.979 128zM832 320h-512v320h512v-320zM768 704c-35.346 0-64 28.654-64 64s28.654 64 64 64c35.346 0 64-28.654 64-64s-28.654-64-64-64zM128 128v576c-70.605-0.218-127.782-57.395-128-127.979v-448.021c0.218-70.605 57.395-127.782 127.979-128h512.021c70.605 0.218 127.782 57.395 128 127.979l-640 0.021z" />
<glyph unicode="&#xe94f;" glyph-name="question" d="M448 320c1.425 69.572 32.785 131.545 81.682 173.761 27.468 18.009 45.399 47.935 46.316 82.104 0.003 35.481-28.651 64.135-63.997 64.135s-64-28.654-64-64h-128c0 106.039 85.961 192 192 192s192-85.961 192-192c-1.425-69.572-32.785-131.545-81.682-173.761-27.468-18.009-45.399-47.935-46.316-82.104l-128.003-0.135zM448 128v128h128v-128h-128zM512 0c247.424 0 448 200.576 448 448s-200.576 448-448 448c-247.424 0-448-200.576-448-448 0-0.209-0.001-0.457-0.001-0.705 0-247.035 200.261-447.296 447.296-447.296 0.248 0 0.495 0 0.743 0.001z" />
<glyph unicode="&#xe950;" glyph-name="reccuring" d="M778.688 271.104c-58.15-86.812-155.851-143.195-266.721-143.195-120.644 0-225.694 66.763-280.221 165.358l152.254 154.733h-384v-384l138.688 138.624c80.93-122.78 218.204-202.691 374.143-202.691 154.915 0 291.411 78.866 371.525 198.639 7.729 11.588 11.728 23.865 11.728 37.076 0 35.375-28.677 64.052-64.052 64.052-22.164 0-41.699-11.258-53.199-28.367zM885.376 693.504c-80.938 122.725-218.182 202.594-374.080 202.594-154.956 0-291.481-78.907-371.588-198.732-7.722-11.582-11.717-23.847-11.717-37.046 0-35.351 28.657-64.008 64.008-64.008 22.152 0 41.676 11.253 53.167 28.354 58.296 87.041 155.996 143.425 266.866 143.425 120.644 0 225.694-66.763 280.221-165.358l-152.254-154.733h384v384z" />
<glyph unicode="&#xe951;" glyph-name="redirect" d="M1023.36 832h-448l178.816-178.752-371.2-370.752-274.752 274.752c-11.586 11.594-27.595 18.765-45.28 18.765-35.353 0-64.013-28.66-64.013-64.013 0-17.669 7.158-33.666 18.733-45.248l319.552-319.552c11.641-11.965 27.898-19.387 45.888-19.387s34.247 7.423 45.874 19.373l415.822 415.567 178.56-178.752v448z" />
<glyph unicode="&#xe952;" glyph-name="redo" d="M492.8 704c0.741 0.004 1.617 0.006 2.494 0.006 145.626 0 277.155-60.36 370.932-157.426l157.774 157.42v-448h-448l200.384 200.384c-70.49 73.774-169.652 119.637-279.526 119.637-1.427 0-2.852-0.008-4.275-0.023-200.935 0.002-364.583-143.55-364.583-319.998 0-35.346-28.654-64-64-64s-64 28.654-64 64c0 246.976 221.056 448 492.8 448z" />
<glyph unicode="&#xe953;" glyph-name="repeat" d="M960 512v384l-134.4-134.4c-78.506 82.849-189.324 134.402-312.182 134.402-0.499 0-0.997-0.001-1.495-0.003-0.743 0.006-1.713 0.009-2.683 0.009-245.904 0-445.248-199.344-445.248-445.248 0-0.971 0.003-1.94 0.009-2.91-0.001 0.015-0.001-0.143-0.001-0.301 0-247.141 200.347-447.488 447.488-447.488 154.235 0 290.245 78.030 370.708 196.767 7.522 11.51 11.399 23.688 11.399 36.772 0 35.785-29.010 64.795-64.795 64.795-22.702 0-42.677-11.675-54.248-29.348-55.386-85.485-150.036-141.086-257.673-141.086-1.715 0-3.427 0.014-5.136 0.042-0.679-0.013-1.786-0.019-2.894-0.019-174.999 0-316.864 141.865-316.864 316.864 0 1.108 0.006 2.215 0.017 3.32-0.011 0.768-0.017 1.875-0.017 2.983 0 174.999 141.865 316.864 316.864 316.864 1.108 0 2.215-0.006 3.32-0.017 0.995 0.018 2.37 0.027 3.746 0.027 86.855 0 165.096-36.883 219.915-95.84l-159.83-160.185h384z" />
<glyph unicode="&#xe954;" glyph-name="report" d="M704 640h-384v-64h384v64zM704 512h-384v-64h384v64zM512 384h-192v-64h192v64zM896 896h-128v-128h64v-704h-640v704h64v128h-128c-35.346 0-64-28.654-64-64v-832c0-35.346 28.654-64 64-64h768c35.346 0 64 28.654 64 64v832c0 35.346-28.654 64-64 64zM704 896h-128c0 35.346-28.654 64-64 64s-64-28.654-64-64h-128v-128h384v128z" />
<glyph unicode="&#xe955;" glyph-name="resizeh" d="M1024 448l-192 192v-128h-128v384h-128v-896h128v384h128v-128zM320 512h-128v128l-192-192 192-192v128h128v-384h128v896h-128v-384z" />
<glyph unicode="&#xe956;" glyph-name="resizew" d="M512 960l-192-192h128v-128h-384v-128h896v128h-384v128h128zM448 256v-128h-128l192-192 192 192h-128v128h384v128h-896v-128h384z" />
<glyph unicode="&#xe957;" glyph-name="retweet" d="M256 256v320h128l-192 256-192-256h128v-448h432l-96 128h-208zM896 384v448h-432l96-128h208v-320h-128l192-256 192 256h-128z" />
<glyph unicode="&#xe958;" glyph-name="right" d="M640 128l320 320-320 320-89.984-89.984 166.016-166.016h-652.032v-128h652.032l-166.016-166.016z" />
<glyph unicode="&#xe959;" glyph-name="rss" d="M160 576c-53.019 0-96-42.981-96-96s42.981-96 96-96c158.752-0.759 287.241-129.248 288-287.927 0-53.092 42.981-96.073 96-96.073s96 42.981 96 96c-0.798 264.775-215.225 479.202-479.923 480zM160 896c-53.019 0-96-42.981-96-96s42.981-96 96-96c335.789 0 608-272.211 608-608 0-53.019 42.981-96 96-96s96 42.981 96 96c0 441.828-358.172 800-800 800zM192 256c-70.692 0-128-57.308-128-128s57.308-128 128-128c70.692 0 128 57.308 128 128-0.504 70.489-57.511 127.496-127.952 128z" />
<glyph unicode="&#xe95a;" glyph-name="safari" d="M224 448h-64c-0.054 1.711-0.085 3.722-0.085 5.741 0 9.966 0.752 19.755 2.203 29.316l63.866-3.057v-4.032c-1.316-6.992-2.068-15.036-2.068-23.256 0-1.657 0.031-3.307 0.091-4.95zM248 561.984c-4.234-7.485-7.667-16.15-9.847-25.302l-62.153 19.286c4.032 9.984 8 22.016 12.032 32zM236.032 363.968l-60.032-19.968c-3.968 11.968-6.016 22.016-9.984 33.984l64 11.968c1.984-7.936 3.968-17.984 6.016-25.984zM292.032 635.968c-5.654-7.017-10.951-14.867-15.565-23.15l-54.451 37.166c7.332 8.337 14.556 17.451 21.309 26.924zM358.016 691.968c-8-6.016-16-9.984-24-16l-40 50.048c9.984 6.016 20.032 14.016 30.016 19.968zM436.032 725.952c-9.984-1.984-17.984-6.016-27.968-8l-22.080 60.032c8.954 3.799 19.644 7.232 30.687 9.734zM520 736h-27.968l-3.968 64h33.92zM446.016 102.016l-6.016 1.984c-9.984 1.984-17.984 3.968-27.968 6.016l17.984 62.016c8-1.984 14.016-4.032 22.016-6.016h5.952zM625.984 782.016l-19.968-60.032c-10.629 1.958-20.010 4.729-28.955 8.353l14.939 61.663c12.032-4.032 24-6.016 33.984-9.984zM552 97.984c-11.968 0-24-1.984-35.968-1.984v64c9.984 0 17.984 1.984 28.032 1.984zM652.032 125.952c-9.984-4.032-22.016-8-32-12.032l-19.968 59.968c9.984 3.968 17.984 6.016 25.984 9.984zM742.016 181.952c-8.38-7.568-17.502-14.8-27.072-21.429l-38.912 51.381 24 17.984zM854.016 529.92l-62.016-14.016c-1.959 9.868-4.723 18.567-8.324 26.817l60.356 21.183c3.779-9.436 7.22-20.786 9.726-32.483zM810.048 259.904c-6.016-9.984-14.016-17.984-19.968-28.032l-49.984 40c5.427 6.484 10.696 13.667 15.498 21.177zM864 425.984l-64 3.968v28.032l64 1.984v-33.984zM852.032 355.968c-3.558-12.466-7.633-23.087-12.509-33.251l-57.443 23.267c1.984 8 6.016 17.984 8 27.968zM448 512l-192-320 320 192 192 320zM512 32c-229.75 0-416 186.25-416 416s186.25 416 416 416c229.75 0 416-186.25 416-416s-186.25-416-416-416zM512 960c-282.77 0-512-229.23-512-512s229.23-512 512-512c282.77 0 512 229.23 512 512-0.545 282.55-229.45 511.455-511.948 512z" />
<glyph unicode="&#xe95b;" glyph-name="search" d="M384 320c-141.385 0-256 114.615-256 256s114.615 256 256 256c141.385 0 256-114.615 256-256 0.001-0.228 0.001-0.499 0.001-0.769 0-140.961-114.271-255.232-255.232-255.232-0.27 0-0.541 0-0.811 0.001zM942.016 110.016l-246.016 243.968c44.986 60.881 72.004 137.422 72.004 220.273 0 0.613-0.001 1.225-0.004 1.838 0 211.983-171.922 383.906-384 383.906s-384-171.923-384-384c0-212.077 171.923-384 384-384 0.512-0.003 1.117-0.004 1.722-0.004 82.858 0 159.406 27.017 221.314 72.723l243.012-246.735c11.607-10.891 27.268-17.581 44.492-17.581 35.947 0 65.088 29.141 65.088 65.088 0 17.24-6.703 32.914-17.644 44.56z" />
<glyph unicode="&#xe95c;" glyph-name="serp" d="M832 896h-704c-70.605-0.218-127.782-57.395-128-127.979v-640.021c0.218-70.605 57.395-127.782 127.979-128h704.021c70.605 0.218 127.782 57.395 128 127.979v640.021c-0.218 70.605-57.395 127.782-127.979 128zM832 128h-704v576h704v-576zM320 576h-64v-64h64v64zM704 576h-320v-64h320v64zM320 448h-64v-64h64v64zM704 448h-320v-64h320v64zM320 320h-64v-64h64v64zM704 320h-320v-64h320v64z" />
<glyph unicode="&#xe95d;" glyph-name="settings" d="M896 448c-0.156 23.994-2.478 47.342-6.78 69.99l134.78 75.162-128 221.696-132.928-76.8c-34.762 30.249-75.643 54.562-120.405 70.772l-2.667 151.18h-256v-150.336c-47.427-17.034-88.308-41.327-123.54-71.95l-132.46 77.134-128-221.696 134.4-77.568c-4.015-20.33-6.313-43.705-6.313-67.616s2.298-47.286 6.684-69.915l-134.771-75.205 128-221.696 132.928 76.8c34.762-30.249 75.643-54.562 120.405-70.772l2.667-151.18h256v150.336c47.427 17.034 88.308 41.327 123.54 71.95l132.46-77.134 128 221.696-134.4 77.568c3.922 20.242 6.244 43.59 6.399 67.453zM512 192c-141.385 0-256 114.615-256 256s114.615 256 256 256c141.385 0 256-114.615 256-256s-114.615-256-256-256zM512 576c-70.692 0-128-57.308-128-128s57.308-128 128-128c70.692 0 128 57.308 128 128s-57.308 128-128 128z" />
<glyph unicode="&#xe95e;" glyph-name="share" d="M960 576l-384 384v-323.776c-289.168-33.568-511.587-276.858-512-572.181 0-35.389 28.654-64.043 64-64.043s64 28.654 64 64c0.415 224.572 165.884 410.372 381.541 442.578l2.459-314.578z" />
<glyph unicode="&#xe95f;" glyph-name="show" d="M512 320c70.692 0 128 57.308 128 128s-57.308 128-128 128c-70.692 0-128-57.308-128-128 0.504-70.489 57.511-127.496 127.952-128zM512 192c-141.385 0-256 114.615-256 256s114.615 256 256 256c141.385 0 256-114.615 256-256 0.001-0.228 0.001-0.499 0.001-0.769 0-140.961-114.271-255.232-255.232-255.232-0.27 0-0.541 0-0.811 0.001zM512 128c200.757 1.912 378.218 99.966 488.792 250.27 14.942 20.539 23.191 44.155 23.191 69.698s-8.249 49.16-22.229 68.331c-111.524 151.696-288.987 249.773-489.448 251.699-201.073-1.926-378.536-100.003-489.097-250.33-14.943-20.54-23.192-44.157-23.192-69.7s8.249-49.16 22.229-68.331c111.536-151.671 288.997-249.725 489.45-251.635z" />
<glyph unicode="&#xe960;" glyph-name="skype" d="M952.576 368.704c4.727 24.383 7.431 52.423 7.431 81.095 0 246.434-199.774 446.208-446.208 446.208-28.672 0-56.712-2.704-83.88-7.872-43.185 45.191-106.047 72.789-175.355 72.789-141.102 0-255.488-114.386-255.488-255.488 0-69.308 27.598-132.17 72.403-178.197-4.782-24.326-7.486-52.366-7.486-81.038 0-246.434 199.774-446.208 446.208-446.208 28.672 0 56.712 2.704 83.88 7.872 43.185-45.191 106.047-72.789 175.355-72.789 141.102 0 255.488 114.386 255.488 255.488 0 69.308-27.598 132.17-72.403 178.197zM737.344 224c-21.939-31.23-51.911-55.458-86.941-69.919-39.581-16.725-84.085-26.166-130.795-26.166-2.675 0-5.343 0.031-8.003 0.093-3.216-0.154-7.454-0.238-11.713-0.238-52.876 0-102.731 12.936-146.573 35.816-27.386 15.703-51.367 38.149-69.197 65.030-16.908 23.465-27.119 51.629-28.116 82.122-0.008 0.389-0.008 0.566-0.008 0.743 0 15.656 6.499 29.793 16.945 39.863 10.663 10.405 25.234 16.813 41.302 16.813 0.651 0 1.299-0.011 1.945-0.031 0.272 0.012 0.704 0.017 1.137 0.017 13.377 0 25.586-5.005 34.854-13.245 10.778-10.408 19.222-23.261 24.432-37.662 7.697-19.264 16.463-35.259 26.844-50.039 9.651-12.832 22.756-23.683 37.905-30.96 18.482-8.427 39.361-13.183 61.351-13.183 2.051 0 4.092 0.041 6.122 0.123 1.725-0.104 4.088-0.157 6.464-0.157 31.794 0 61.343 9.616 85.896 26.099 20.456 12.912 34.245 35.951 34.389 62.22 0.039 0.859 0.062 1.84 0.062 2.826 0 17.643-7.139 33.619-18.687 45.196-13.51 12.89-30.040 22.74-48.413 28.378q-31.394 10.789-82.786 21.861c-44.16 9.404-82.799 21.95-119.579 37.966-25.982 11.42-51.002 30.916-70.131 55.262-17.568 24.055-27.924 53.701-27.924 85.766 0 1.873 0.035 3.738 0.105 5.594-0.017 0.354-0.022 1.089-0.022 1.824 0 33.58 10.931 64.607 29.428 89.717 21.011 27.371 49.584 48.6 82.598 60.557 37.295 13.952 78.936 21.796 122.409 21.796 2.682 0 5.357-0.030 8.025-0.089 1.58 0.050 3.91 0.074 6.245 0.074 34.16 0 67.107-5.195 98.094-14.837 25.218-8.003 49.132-20.871 69.994-37.42 16.64-13.095 30.686-29.571 41.047-48.363 8.549-15.629 13.446-33.224 13.727-51.936-0.070-16.291-6.524-30.975-16.974-41.766-10.111-11.324-24.774-18.429-41.097-18.429-0.419 0-0.837 0.005-1.254 0.014-0.97-0.077-2.174-0.121-3.387-0.121-12.076 0-23.148 4.299-31.769 11.45-9.936 10.167-18.47 21.908-25.137 34.773-10.475 22.119-24.379 40.077-41.37 54.509-19.101 12.483-42.199 19.795-67.005 19.795-3.527 0-7.020-0.148-10.473-0.438-1.505 0.13-3.796 0.186-6.101 0.186-27.046 0-52.274-7.781-73.568-21.227-16.731-9.668-28.377-27.764-29.188-48.641-0.010-0.407-0.014-0.756-0.014-1.105 0-11.139 3.759-21.399 10.078-29.583 7.533-9.176 16.889-16.732 27.526-22.128 10.884-5.898 22.997-10.968 35.656-14.78 13.791-4.004 34.463-9.252 63.135-16.292 40.141-8.868 72.929-18.122 104.991-28.953 21.468-7.181 46.265-19.341 68.917-34.463 19.265-13.087 35.713-31.172 47.205-52.34 11.422-22.431 17.886-47.99 17.886-75.058 0-1.88-0.031-3.753-0.093-5.618 0.015-0.365 0.020-1.117 0.020-1.871 0-37.099-11.367-71.543-30.808-100.040z" />
<glyph unicode="&#xe961;" glyph-name="smilehappy" d="M512-64c-282.77 0-512 229.23-512 512s229.23 512 512 512c282.77 0 512-229.23 512-512-0.328-282.638-229.362-511.672-511.969-512zM512 832c-212.077 0-384-171.923-384-384s171.923-384 384-384c212.077 0 384 171.923 384 384-0.255 211.975-172.025 383.745-383.976 384zM448 576c0-35.346-28.654-64-64-64s-64 28.654-64 64c0 35.346 28.654 64 64 64s64-28.654 64-64zM704 576c0-35.346-28.654-64-64-64s-64 28.654-64 64c0 35.346 28.654 64 64 64s64-28.654 64-64zM512 192c4.376-0.325 9.48-0.51 14.627-0.51 109.846 0 200.003 84.293 209.318 191.722l-447.945 0.787c9.37-108.217 99.528-192.51 209.373-192.51 5.147 0 10.25 0.185 15.304 0.549z" />
<glyph unicode="&#xe962;" glyph-name="smileneutral" d="M512 960c-282.77 0-512-229.23-512-512s229.23-512 512-512c282.77 0 512 229.23 512 512-0.328 282.638-229.362 511.672-511.969 512zM512 64c-212.077 0-384 171.923-384 384s171.923 384 384 384c212.077 0 384-171.923 384-384-0.255-211.975-172.025-383.745-383.976-384zM384 512c35.346 0 64 28.654 64 64s-28.654 64-64 64c-35.346 0-64-28.654-64-64s28.654-64 64-64zM640 512c35.346 0 64 28.654 64 64s-28.654 64-64 64c-35.346 0-64-28.654-64-64s28.654-64 64-64zM256 320h512v64h-512v-64z" />
<glyph unicode="&#xe963;" glyph-name="smilesad" d="M512 960c-282.77 0-512-229.23-512-512s229.23-512 512-512c282.77 0 512 229.23 512 512-0.328 282.638-229.362 511.672-511.969 512zM512 64c-212.077 0-384 171.923-384 384s171.923 384 384 384c212.077 0 384-171.923 384-384-0.255-211.975-172.025-383.745-383.976-384zM384 512c35.346 0 64 28.654 64 64s-28.654 64-64 64c-35.346 0-64-28.654-64-64s28.654-64 64-64zM640 512c35.346 0 64 28.654 64 64s-28.654 64-64 64c-35.346 0-64-28.654-64-64s28.654-64 64-64zM512 448c-4.376 0.325-9.48 0.51-14.627 0.51-109.846 0-200.003-84.293-209.318-191.722-0.055-18.46 14.272-32.787 31.945-32.787s32 14.327 32 32c9.522 72.929 71.266 128.665 146.028 128.665 4.92 0 9.783-0.241 14.579-0.713 3.581 0.472 8.445 0.713 13.364 0.713 74.762 0 136.506-55.735 145.949-127.922 0.079-18.416 14.406-32.743 32.079-32.743s32 14.327 32 32c-9.37 108.217-99.528 192.51-209.373 192.51-5.147 0-10.25-0.185-15.304-0.549z" />
<glyph unicode="&#xe964;" glyph-name="speaker" d="M792 0c12.269 0.025 23.476 4.553 32.060 12.019 122.716 106.049 199.945 261.98 199.945 435.949s-77.228 329.9-199.272 435.381c-9.25 8.057-20.456 12.607-32.723 12.651-14.221-0.218-26.966-6.32-35.949-15.97-7.443-8.555-11.971-19.761-11.996-32.025 0.2-14.241 6.305-27.012 15.97-36.009 103.115-88.301 168.029-218.584 168.029-364.028s-64.914-275.727-167.349-363.457c-10.344-9.568-16.449-22.34-16.649-36.539 0.044-12.313 4.594-23.519 12.081-32.094 8.956-9.584 21.675-15.659 35.815-15.878zM681.984 206.016c15.277 0.007 28.926 6.973 37.949 17.901 49.869 60.552 80.067 138.791 80.067 224.083s-30.198 163.531-80.486 224.609c-8.609 10.395-22.254 17.359-37.527 17.375-11.642-0.070-22.2-4.638-30.039-12.051-10.909-8.329-17.905-21.348-17.963-36.003 0.044-12.286 4.594-23.492 12.081-32.067 36.024-42.65 57.95-98.323 57.95-159.118 0-0.965-0.006-1.929-0.017-2.891 0.011-0.688 0.017-1.674 0.017-2.661 0-60.795-21.926-116.468-58.303-159.544-7.112-8.157-11.64-19.363-11.665-31.627 0.058-14.67 7.054-27.689 17.874-35.957 7.921-7.437 18.454-11.98 30.048-12.048zM480 128c17.831 0.738 32.007 15.372 32.007 33.317 0 0.234-0.002 0.468-0.007 0.702l0.001 571.997c0.004 0.198 0.007 0.432 0.007 0.667 0 17.945-14.176 32.579-31.94 33.315-12.493-2.592-23.327-8.213-32.136-16.058l-255.931-175.94h-128c-0.249 0.004-0.543 0.006-0.838 0.006-34.887 0-63.168-28.281-63.168-63.168 0-0.294 0.002-0.589 0.006-0.882v-127.956c-0.004-0.249-0.006-0.543-0.006-0.838 0-34.887 28.281-63.168 63.168-63.168 0.294 0 0.589 0.002 0.882 0.006h127.956l256-176c8.74-7.785 19.574-13.406 31.551-15.921z" />
<glyph unicode="&#xe965;" glyph-name="star" d="M1024 598.4c0 0.052 0 0.113 0 0.174 0 4.517-0.75 8.858-2.132 12.907-5.56 16.362-20.899 28.188-39.046 28.518l-330.023 0.001-101.632 292.032c-5.667 16.4-20.974 27.968-38.983 27.968-0.065 0-0.13 0-0.195 0h0.010c-0.055 0-0.12 0-0.185 0-18.009 0-33.316-11.568-38.896-27.679l-101.719-292.321h-329.984c-18.216-0.35-33.567-12.231-39.081-28.631-1.37-4.047-2.112-8.368-2.112-12.863 0-13.449 6.637-25.347 16.815-32.599l266.938-204.883-101.888-307.84c-1.284-3.751-2.025-8.072-2.025-12.566 0-13.449 6.637-25.347 16.815-32.599 6.859-4.903 15.266-7.791 24.346-7.791s17.487 2.887 24.351 7.794l266.625 189.93 266.752-190.272c6.737-4.82 15.143-7.708 24.224-7.708s17.487 2.887 24.351 7.794c10.173 7.248 16.81 19.147 16.81 32.596 0 4.494-0.741 8.815-2.108 12.848l-101.805 307.558 266.816 204.8c10.309 7.393 16.949 19.336 16.96 32.83z" />
<glyph unicode="&#xe966;" glyph-name="star2" d="M512 752.96l50.432-144.576c13.437-37.72 48.787-64.26 90.353-64.384h168.335l-139.392-107.136c-22.904-17.723-37.508-45.217-37.508-76.123 0-10.795 1.782-21.173 5.067-30.858l48.569-146.524-130.112 92.8c-15.482 11.156-34.832 17.842-55.744 17.842s-40.262-6.686-56.029-18.038l-129.571-92.669 48.768 147.2c3.086 9.008 4.868 19.387 4.868 30.181 0 30.905-14.604 58.4-37.287 75.959l-139.804 107.364h168.256c41.581 0.124 76.931 26.664 90.159 63.713l50.641 145.247zM512 960v0c-0.055 0-0.12 0-0.185 0-18.009 0-33.316-11.568-38.896-27.679l-101.719-292.321h-329.984c-18.216-0.35-33.567-12.231-39.081-28.631-1.37-4.047-2.112-8.368-2.112-12.863 0-13.449 6.637-25.347 16.815-32.599l266.938-204.883-101.888-307.84c-1.284-3.751-2.025-8.072-2.025-12.566 0-13.449 6.637-25.347 16.815-32.599 6.859-4.903 15.266-7.791 24.346-7.791s17.487 2.887 24.351 7.794l266.625 189.93 266.752-190.272c6.737-4.82 15.143-7.708 24.224-7.708s17.487 2.887 24.351 7.794c10.173 7.248 16.81 19.147 16.81 32.596 0 4.494-0.741 8.815-2.108 12.848l-101.805 307.558 266.816 204.8c10.3 7.334 16.937 19.233 16.937 32.682 0 4.494-0.741 8.815-2.108 12.848-5.433 16.522-20.808 28.513-39.040 28.901l-330.029 0.001-101.632 292.032c-5.667 16.4-20.974 27.968-38.983 27.968-0.065 0-0.13 0-0.195 0h0.010z" />
<glyph unicode="&#xe967;" glyph-name="table" d="M0 960v-960h960v960h-960zM64 768h384v-192h-384v192zM64 512h384v-192h-384v192zM64 64v192h384v-192h-384zM896 64h-384v192h384v-192zM896 320h-384v192h384v-192zM896 576h-384v192h384v-192z" />
<glyph unicode="&#xe968;" glyph-name="telescope" d="M123.712 429.44l-123.712-71.424 85.12-147.2 123.712 71.424zM457.728 670.016l-275.2-158.848 128-221.696 136.96 79.040 17.216-29.76-268.48-402.752h76.8l238.976 358.4v-358.4h64v358.4l238.848-358.4h76.8zM1024 627.2l-192 332.8-330.56-190.848 192-332.8z" />
<glyph unicode="&#xe969;" glyph-name="tile" d="M64 640h256v256h-256v-256zM384 640h256v256h-256v-256zM704 896v-256h256v256h-256zM64 320h256v256h-256v-256zM384 320h256v256h-256v-256zM704 320h256v256h-256v-256zM64 0h256v256h-256v-256zM384 0h256v256h-256v-256zM704 0h256v256h-256v-256z" />
<glyph unicode="&#xe96a;" glyph-name="time" d="M896 448c-0.027 141.283-76.439 264.714-190.186 331.243l-1.814 180.757h-384v-179.776c-115.581-67.49-192.005-190.932-192.005-332.224s76.424-264.734 190.19-331.244l1.815-180.756h384v179.776c115.561 67.51 191.973 190.941 192 332.22zM512 149.12c-165.067 0-298.88 133.813-298.88 298.88s133.813 298.88 298.88 298.88c165.067 0 298.88-133.813 298.88-298.88-0.182-164.994-133.886-298.698-298.863-298.88zM576 640h-128v-320h256v128h-128v192z" />
<glyph unicode="&#xe96b;" glyph-name="twitter" d="M288 64c335.789 0 608 272.211 608 608v11.968c75.65 42.12 126.361 120.972 127.997 211.806-44.645-40.341-101.435-68.29-164.303-77.582-37.006 47.305-92.954 77.756-156.014 77.756-105.862 0-191.68-85.818-191.68-191.68 0-0.094 0-0.188 0-0.282 0.040-14.958 2.235-29.403 6.291-43.047-40.227-12.565-86.263-20.596-134.128-20.938-151.010 1.198-284.092 76.185-365.235 190.598-12.218-30.167-18.794-66.586-18.927-104.522 0-184.061 156.032-380.093 329.984-446.077-82.838-89.469-199.244-146.832-329.075-151.971 82.108-40.426 179.692-64.043 282.793-64.043 1.511 0 3.021 0.005 4.53 0.015z" />
<glyph unicode="&#xe96c;" glyph-name="undo" d="M531.2 704c-0.741 0.004-1.617 0.006-2.494 0.006-145.626 0-277.155-60.36-370.932-157.426l-157.774 157.42v-448h448l-200.384 200.384c70.49 73.774 169.652 119.637 279.526 119.637 1.427 0 2.852-0.008 4.275-0.023 200.935 0.002 364.583-143.55 364.583-319.998 0-35.346 28.654-64 64-64s64 28.654 64 64c0 246.976-221.056 448-492.8 448z" />
<glyph unicode="&#xe96d;" glyph-name="unpin" d="M544 768c88.263-0.254 159.746-71.737 160-159.976-0.336-44.268-17.801-84.368-46.081-114.078l168.065-167.931c40.933 79.748 66.398 173.493 69.983 272.817 0.051 2.485 0.061 4.042 0.061 5.601 0 195.133-157.18 353.555-351.837 355.565-97.206-0.391-184.875-40.084-248.164-103.971l135.973-136.027c27.862 29.582 67.29 48.003 111.020 48.003 0.344 0 0.689-0.001 1.033-0.003zM960 64l-896 896-64-64 204.032-204.032c-7.641-27.368-12.033-58.795-12.033-91.248 0-0.253 0-0.506 0.001-0.759 0-173.977 102.016-347.993 185.984-471.961 70.016-102.016 124.032-192 166.016-192s96 89.984 166.016 192c7.498 14.038 14.796 25.796 22.748 37.061l163.236-165.061z" />
<glyph unicode="&#xe96e;" glyph-name="up" d="M448 0h128v651.968l166.016-166.016 89.984 90.048-320 320-320-320 89.984-89.984 166.016 165.952v-651.968z" />
<glyph unicode="&#xe96f;" glyph-name="upload" d="M832 320v-192h-640v192h-128v-192c0.504-70.489 57.511-127.496 127.952-128h640.048c70.489 0.504 127.496 57.511 128 127.952v192.048h-128zM448 256h128v448h192l-256 256-256-256h192v-448z" />
<glyph unicode="&#xe970;" glyph-name="user" d="M808 192c-81.984 27.968-168 62.016-168 128v48c78.306 65.312 127.824 162.856 128 271.97v32.030c0 0.114 0 0.249 0 0.384 0 123.5-100.116 223.616-223.616 223.616-0.135 0-0.27 0-0.405 0h-63.979c-0.114 0-0.249 0-0.384 0-123.5 0-223.616-100.116-223.616-223.616 0-0.135 0-0.27 0-0.405v-31.979c0.176-109.144 49.694-206.688 127.434-271.54l0.566-48.46c0-65.984-86.016-100.032-168-128-85.885-24.308-148.389-100.387-151.988-191.603l895.988-0.397c-3.611 91.613-66.115 167.692-150.538 191.645z" />
<glyph unicode="&#xe971;" glyph-name="vk" d="M953.984 185.984c-42.741 62.885-90.878 117.385-145.049 165.206-7.165 7.717-10.976 16.912-10.976 26.997 0 8.992 3.030 17.277 8.125 23.888 55.932 77.924 153.916 243.94 153.916 321.892 0.091 1.021 0.143 2.208 0.143 3.408 0 21.585-16.801 39.245-38.039 40.618l-124.088 0.006c-0.278 0.008-0.604 0.012-0.932 0.012-16.433 0-30.336-10.827-34.967-25.737-31.082-81.228-70.158-151.228-117.656-214.546-5.782-7.837-17.192-14.613-30.219-15.718-21.579 1.892-38.245 19.749-38.245 41.499 0 0.167 0.001 0.333 0.003 0.5v175.975c-0.717 20.701-17.315 37.299-37.949 38.014l-154.051 0.002c-3.759 0.893-8.075 1.405-12.511 1.405-22.819 0-42.471-13.555-51.345-33.052 8.874-20.204 28.527-33.759 51.345-33.759 4.436 0 8.752 0.512 12.892 1.481l-0.381-216.075c-0.036-22.077-17.923-39.964-39.997-40-9.167 1.3-17.32 4.852-24.125 10.074-65.135 75.384-109.642 170.473-123.553 275.225-4.185 20.635-19.59 33.987-38.234 34.699l-120.075 0.002c-21.358-1.379-38.159-19.040-38.159-40.624 0-1.2 0.052-2.387 0.154-3.56 25.896-158.246 91.103-298.116 185.234-413.452 122.788-134.363 230.756-182.363 284.772-182.363h67.968c20.701 0.717 37.299 17.315 38.014 37.949l0.002 74.051c-0.021 0.478-0.033 1.038-0.033 1.601 0 21.208 17.192 38.4 38.4 38.4 11.919 0 22.57-5.431 29.613-13.952 28.084-32.065 54.068-76.097 90.036-122.049 7.54-9.557 19.023-15.715 31.954-15.999l156.078-0.001c0 0 0 0 0 0 20.96 0 37.952 16.992 37.952 37.952 0 0.023 0 0.045 0 0.067 0.005 0.208 0.007 0.458 0.007 0.708 0 7.204-2.254 13.881-6.096 19.365z" />
<glyph unicode="&#xe972;" glyph-name="youtube" d="M384 704v-448l384 224zM192 896h640c1.158 0.025 2.524 0.039 3.893 0.039 52.098 0 99.384-20.606 134.151-54.112 33.39-34.651 53.996-81.936 53.996-134.034 0-1.369-0.014-2.734-0.043-4.096l0.003-447.797c0.029-1.233 0.046-2.685 0.046-4.142 0-103.777-84.127-187.904-187.904-187.904-1.456 0-2.909 0.017-4.357 0.050l-639.785-0.004c-1.675-0.056-3.643-0.088-5.619-0.088-51.303 0-97.581 21.512-130.306 56.008-34.65 32.88-56.163 79.158-56.163 130.46 0 1.976 0.032 3.945 0.095 5.905l-0.007 447.714c-0.029 1.233-0.046 2.685-0.046 4.142 0 103.777 84.127 187.904 187.904 187.904 1.456 0 2.909-0.017 4.357-0.050z" />
<glyph unicode="&#xe973;" glyph-name="museum" d="M1024-64v128h-1024v-128h1024zM1024 640v-64h-1024v64l512 192zM256 128v384h-128v-384h128zM576 128v384h-128v-384h128zM896 128v384h-128v-384h128zM960 448h-256v64h256v-64zM640 448h-256v64h256v-64zM320 448h-256v64h256v-64z" />
<glyph unicode="&#xe974;" glyph-name="check2" d="M512 960c-281.6 0-512-230.4-512-512s230.4-512 512-512 512 230.4 512 512-230.4 512-512 512zM409.6 166.4l-217.6 217.6 89.6 89.6 128-128 358.4 358.4 89.6-89.6-448-448z" />
<glyph unicode="&#xe975;" glyph-name="coins" d="M640 768c0 108.8-140.8 192-320 192s-320-83.2-320-192c0-96 115.2-172.8 268.8-192 44.8 115.2 192 192 371.2 192zM19.2 640c0 6.4-6.4 6.4-6.4 6.4-6.4 0-12.8-6.4-12.8-6.4v-64c0-96 108.8-172.8 256-185.6v128c-108.8 12.8-198.4 57.6-236.8 121.6zM19.2 448c0 6.4-6.4 6.4-6.4 6.4-6.4 0-12.8-6.4-12.8-6.4v-64c0-96 108.8-172.8 256-185.6v128c-108.8 12.8-204.8 57.6-236.8 121.6zM960 512c0-106.039-143.269-192-320-192s-320 85.961-320 192c0 106.039 143.269 192 320 192s320-85.961 320-192zM953.6 390.4c-6.4 0-6.4 0-6.4-6.4-44.8-76.8-160-128-300.8-128s-256 51.2-300.8 128c0 6.4-6.4 6.4-6.4 6.4-12.8 0-19.2-6.4-19.2-6.4v-64c0-108.8 140.8-192 320-192s320 83.2 320 192v64l-6.4 6.4zM953.6 198.4c-6.4 0-6.4 0-6.4-6.4-44.8-76.8-160-128-300.8-128s-256 51.2-300.8 128c0 6.4-6.4 6.4-6.4 6.4-12.8 0-19.2-6.4-19.2-6.4v-64c0-108.8 140.8-192 320-192s320 83.2 320 192v64l-6.4 6.4z" />
<glyph unicode="&#xe976;" glyph-name="crosshair" d="M512 960c-281.6 0-512-230.4-512-512s230.4-512 512-512 512 230.4 512 512-230.4 512-512 512zM576 70.4v249.6h-128v-249.6c-160 25.6-288 153.6-313.6 313.6h249.6v128h-249.6c25.6 160 153.6 288 313.6 313.6v-249.6h128v249.6c160-25.6 288-153.6 313.6-313.6h-249.6v-128h249.6c-25.6-160-153.6-288-313.6-313.6z" />
<glyph unicode="&#xe977;" glyph-name="down2" d="M512 960c-281.6 0-512-230.4-512-512s230.4-512 512-512 512 230.4 512 512-230.4 512-512 512zM512 102.4l-300.8 300.8 89.6 89.6 147.2-147.2v422.4h128v-422.4l147.2 147.2 89.6-89.6-300.8-300.8z" />
<glyph unicode="&#xe978;" glyph-name="export-doc" d="M704 960h-384c-70.4 0-128-57.6-128-128v-256h128v256h320v-256h256v-512h-576v128h-128v-128c0-70.4 57.6-128 128-128h576c70.4 0 128 57.6 128 128v576l-320 320zM448 128l320 256-320 256v-192h-448v-128h448z" />
<glyph unicode="&#xe979;" glyph-name="form" d="M0 896v-192h1024v192h-1024zM960 768h-896v64h896v-64zM0 384h1024v192h-1024v-192zM64 512h896v-64h-896v64zM0 64h576v192h-576v-192z" />
<glyph unicode="&#xe97a;" glyph-name="frame" d="M896 768v-640h-768v640h768zM1024 896h-1024v-896h1024v896zM768 640v-384h-512v384h512zM832 704h-640v-512h640v512z" />
<glyph unicode="&#xe97b;" glyph-name="instagram2" d="M704 896h-384c-140.8 0-256-115.2-256-256v-384c0-140.8 115.2-256 256-256h384c140.8 0 256 115.2 256 256v384c0 140.8-115.2 256-256 256zM844.8 256c0-76.8-64-140.8-140.8-140.8h-384c-76.8 0-140.8 64-140.8 140.8v384c0 76.8 64 140.8 140.8 140.8h384c76.8 0 140.8-64 140.8-140.8v-384zM512 646.4c-108.8 0-198.4-89.6-198.4-198.4s89.6-198.4 198.4-198.4 198.4 89.6 198.4 198.4-89.6 198.4-198.4 198.4zM512 313.6c-76.8 0-134.4 64-134.4 134.4 0 76.8 64 134.4 134.4 134.4s134.4-64 134.4-134.4c0-76.8-57.6-134.4-134.4-134.4zM768 652.8c0-28.277-22.923-51.2-51.2-51.2s-51.2 22.923-51.2 51.2c0 28.277 22.923 51.2 51.2 51.2s51.2-22.923 51.2-51.2z" />
<glyph unicode="&#xe97c;" glyph-name="left2" d="M1024 448c0 281.6-230.4 512-512 512s-512-230.4-512-512 230.4-512 512-512 512 230.4 512 512zM166.4 448l300.8 300.8 89.6-89.6-147.2-147.2h422.4v-128h-422.4l147.2-147.2-89.6-89.6-300.8 300.8z" />
<glyph unicode="&#xe97d;" glyph-name="lightning" d="M428.8 960l-230.4-467.2c-6.4 0-6.4-6.4-6.4-12.8 0-19.2 12.8-32 32-32h204.8l-115.2-499.2c-6.4-6.4 0-12.8 6.4-12.8 0 0 6.4 0 6.4 6.4l492.8 576c12.8 6.4 12.8 12.8 12.8 19.2 0 19.2-12.8 38.4-38.4 38.4h-236.8l192 384h-320z" />
<glyph unicode="&#xe97e;" glyph-name="linkedin2" d="M742.4 665.6c64 0 121.6-19.2 160-64s57.6-108.8 57.6-198.4v-339.2h-192v320c0 44.8-6.4 76.8-19.2 96s-38.4 32-70.4 32c-51.2 0-83.2-25.6-96-70.4-6.4-6.4-6.4-25.6-6.4-44.8v-332.8h-192v576h192v-70.4c12.8 19.2 19.2 32 32 44.8s25.6 19.2 51.2 32 51.2 19.2 83.2 19.2zM64 640h192v-576h-192zM256 800c0-53.019-42.981-96-96-96s-96 42.981-96 96c0 53.019 42.981 96 96 96s96-42.981 96-96z" />
<glyph unicode="&#xe97f;" glyph-name="magicwand" d="M768 960l-768-768 160-160 768 768-160 160zM544 672l224 224 89.6-89.6-224-224-89.6 89.6zM736 384l-64-160-160-64 160-64 64-160 64 160 160 64-160 64zM896 640l-38.4-89.6-89.6-38.4 89.6-38.4 38.4-89.6 38.4 89.6 89.6 38.4-89.6 38.4z" />
<glyph unicode="&#xe980;" glyph-name="pause" d="M512 960c-281.6 0-512-230.4-512-512s230.4-512 512-512 512 230.4 512 512-230.4 512-512 512zM448 192h-192v512h192v-512zM768 192h-192v512h192v-512z" />
<glyph unicode="&#xe981;" glyph-name="picture" d="M0 896v-832h1024v832h-1024zM960 128h-896v704h896v-704zM832 672c0-53.019-42.981-96-96-96s-96 42.981-96 96c0 53.019 42.981 96 96 96s96-42.981 96-96zM896 192l-192 256-115.2-179.2-204.8 307.2-256-384z" />
<glyph unicode="&#xe982;" glyph-name="return" d="M608 896h-160v-128h160c121.6 0 224-102.4 224-224s-102.4-224-224-224h-288v256l-320-320 320-320v256h288c192 0 352 160 352 352s-160 352-352 352z" />
<glyph unicode="&#xe983;" glyph-name="right2" d="M0 448c0-281.6 230.4-512 512-512s512 230.4 512 512-230.4 512-512 512-512-230.4-512-512zM857.6 448l-300.8-300.8-89.6 89.6 147.2 147.2h-422.4v128h422.4l-147.2 147.2 89.6 89.6 300.8-300.8z" />
<glyph unicode="&#xe984;" glyph-name="source" d="M256 153.6l-256 294.4 256 294.4 83.2-76.8-192-217.6 192-217.6zM768 153.6l256 294.4-256 294.4-83.2-76.8 192-217.6-192-217.6zM441.6 0l256 896h-115.2l-256-896z" />
<glyph unicode="&#xe985;" glyph-name="text" d="M64 896v-288h96c0 96 57.6 179.2 128 179.2h96v-640c0-25.6-19.2-51.2-51.2-51.2h-140.8v-96h576v96h-140.8c-25.6 0-51.2 19.2-51.2 51.2v640h96c70.4 0 128-76.8 128-179.2h96v288h-832z" />
<glyph unicode="&#xe986;" glyph-name="toxic" d="M640 512c0-70.692-57.308-128-128-128s-128 57.308-128 128c0 70.692 57.308 128 128 128s128-57.308 128-128zM384 748.8l-108.8 192c-6.4 12.8-19.2 19.2-32 19.2-6.4 0-12.8 0-19.2-6.4-128-89.6-211.2-236.8-224-396.8 0-25.6 19.2-44.8 38.4-44.8h211.2c19.2 0 32 12.8 38.4 32 6.4 64 38.4 115.2 83.2 147.2 19.2 19.2 19.2 38.4 12.8 57.6zM640 748.8l108.8 192c6.4 12.8 19.2 19.2 32 19.2 6.4 0 12.8 0 19.2-6.4 121.6-89.6 211.2-230.4 224-396.8 0-25.6-19.2-44.8-38.4-44.8h-211.2c-19.2 0-32 12.8-38.4 32-6.4 64-38.4 115.2-83.2 147.2-19.2 19.2-19.2 38.4-12.8 57.6zM640 288c-6.4 19.2-32 25.6-44.8 19.2-25.6-12.8-51.2-19.2-83.2-19.2s-57.6 6.4-83.2 19.2c-19.2 6.4-38.4 0-44.8-19.2l-108.8-185.6c-12.8-19.2-6.4-44.8 12.8-51.2 70.4-32 147.2-51.2 224-51.2s153.6 19.2 217.6 51.2c19.2 6.4 25.6 32 12.8 51.2l-102.4 185.6z" />
<glyph unicode="&#xe987;" glyph-name="up2" d="M512-64c281.6 0 512 230.4 512 512s-230.4 512-512 512-512-230.4-512-512 230.4-512 512-512zM512 793.6l300.8-300.8-89.6-89.6-147.2 147.2v-422.4h-128v422.4l-147.2-147.2-89.6 89.6 300.8 300.8z" />
<glyph unicode="&#xe988;" glyph-name="vacation" d="M224-32c0-17.673-14.327-32-32-32s-32 14.327-32 32c0 17.673 14.327 32 32 32s32-14.327 32-32zM832 864c0-53.019-42.981-96-96-96s-96 42.981-96 96c0 53.019 42.981 96 96 96s96-42.981 96-96zM454.4 166.4l-121.6-147.2c-19.2-19.2-19.2-51.2 0-70.4 12.8-6.4 25.6-12.8 38.4-12.8s25.6 6.4 32 12.8l172.8 153.6-83.2 160-38.4-96zM940.8 454.4l-96 51.2c-19.2 6.4-32 19.2-38.4 38.4l-76.8 153.6c-12.8 19.2-25.6 32-51.2 38.4h-12.8c-12.8 0-32-6.4-44.8-12.8l-300.8-224c-6.4-6.4-12.8-12.8-12.8-25.6l-44.8-153.6h-64c-38.4 0-70.4-25.6-83.2-64l-51.2-192c-6.4-32 12.8-64 44.8-64h25.6c12.8 19.2 32 32 51.2 32s38.4-12.8 51.2-25.6l19.2 57.6 57.6 192 44.8 172.8 198.4 121.6-44.8-153.6c0-12.8 0-25.6 6.4-38.4l224-390.4c6.4-19.2 25.6-25.6 44.8-25.6 6.4 0 12.8 0 19.2 6.4 19.2 12.8 32 38.4 19.2 57.6v6.4l-6.4 6.4-172.8 358.4 51.2 140.8 38.4-57.6c12.8-12.8 19.2-19.2 32-25.6l134.4-51.2 19.2-6.4c12.8 0 32 6.4 38.4 19.2 6.4 19.2 0 44.8-19.2 57.6z" />
<glyph unicode="&#xe989;" glyph-name="amp-project" d="M512 960c-282.752 0-512-229.248-512-512s229.248-512 512-512 512 229.248 512 512-229.248 512-512 512zM679.424 472.64l-215.424-344.64h-48l64 256h-145.6c-20.224 0-32.512 22.208-21.824 39.36l215.424 344.64h48l-64-256h145.6c20.224 0 32.512-22.208 21.824-39.36z" />
<glyph unicode="&#xe98a;" glyph-name="backlink-broken" d="M787.2 492.8c-32-25.6-76.8-44.8-115.2-44.8h-19.2l-57.6-51.2c25.6-6.4 51.2-12.8 76.8-12.8 57.6 0 115.2 25.6 160 64l128 128c44.8 44.8 64 96 64 160 0 57.6-25.6 115.2-64 160-44.8 44.8-102.4 64-160 64s-115.2-19.2-160-64l-128-128c-38.4-44.8-64-102.4-64-160 0-25.6 6.4-51.2 12.8-76.8l51.2 57.6v25.6c0 44.8 19.2 83.2 44.8 115.2l128 128c32 25.6 70.4 38.4 115.2 38.4s83.2-19.2 115.2-44.8c25.6-32 44.8-70.4 44.8-115.2s-19.2-83.2-44.8-115.2l-128-128zM512 307.2v-19.2c0-44.8-19.2-83.2-44.8-115.2l-128-128c-32-25.6-76.8-44.8-115.2-44.8s-83.2 12.8-115.2 44.8c-25.6 32-44.8 70.4-44.8 115.2s19.2 83.2 44.8 115.2l128 128c32 32 70.4 44.8 115.2 44.8h25.6l51.2 51.2c-25.6 6.4-51.2 12.8-76.8 12.8-57.6 0-115.2-19.2-160-64l-128-128c-44.8-44.8-64-96-64-160s25.6-115.2 64-160c44.8-44.8 96-64 160-64s115.2 25.6 160 64l128 128c44.8 44.8 64 96 64 160 0 25.6-6.4 51.2-12.8 76.8l-51.2-57.6zM759.68 181.888l22.656 22.656 190.080-190.080-22.656-22.656zM652.8 192h32v-256h-32zM768 300.8h256v-32h-256zM332.8 960h32v-256h-32zM0 620.8h256v-32h-256zM55.68 885.888l22.656 22.656 190.080-190.080-22.656-22.656z" />
<glyph unicode="&#xe98b;" glyph-name="backlink-part" d="M64 0c44.8-44.8 102.4-64 160-64s115.2 19.2 160 64l128 128c44.8 44.8 64 96 64 160 0 25.6-6.4 51.2-12.8 76.8l-51.2-57.6v-25.6c0-44.8-19.2-83.2-44.8-115.2l-128-128c-32-25.6-70.4-38.4-115.2-38.4s-83.2 19.2-115.2 44.8c-25.6 32-44.8 70.4-44.8 115.2s19.2 83.2 44.8 115.2l128 128c32 25.6 76.8 44.8 115.2 44.8h19.2l51.2 51.2c-19.2 6.4-44.8 12.8-70.4 12.8-57.6 0-115.2-25.6-160-64l-128-128c-44.8-44.8-64-96-64-160s25.6-115.2 64-160zM512 588.8v19.2c0 44.8 19.2 83.2 44.8 115.2l128 128c32 25.6 76.8 44.8 115.2 44.8s83.2-12.8 115.2-44.8c25.6-32 44.8-70.4 44.8-115.2s-19.2-83.2-44.8-115.2l-128-128c-32-32-70.4-44.8-115.2-44.8h-25.6l-51.2-51.2c25.6-6.4 51.2-12.8 76.8-12.8 57.6 0 115.2 19.2 160 64l128 128c44.8 44.8 64 96 64 160s-25.6 115.2-64 160c-44.8 44.8-96 64-160 64s-115.2-25.6-160-64l-128-128c-38.4-44.8-64-102.4-64-160 0-25.6 6.4-51.2 12.8-76.8l51.2 57.6zM55.936 885.952l22.656 22.656 190.080-190.080-22.656-22.656zM332.8 960h32v-256h-32zM0 627.2h256v-32h-256zM480 480l-256-256c-19.2-19.2-19.2-51.2 0-70.4s51.2-19.2 70.4 0l256 256-70.4 70.4z" />
<glyph unicode="&#xe98c;" glyph-name="backlink" d="M960 896c-44.8 44.8-102.4 64-160 64s-115.2-19.2-160-64l-128-128c-38.4-44.8-64-96-64-160 0-25.6 6.4-51.2 12.8-76.8l51.2 57.6v25.6c0 44.8 19.2 83.2 44.8 115.2l128 128c32 25.6 70.4 38.4 115.2 38.4s83.2-19.2 115.2-44.8c25.6-32 44.8-70.4 44.8-115.2s-19.2-83.2-44.8-115.2l-128-128c-32-25.6-76.8-44.8-115.2-44.8h-19.2l-57.6-51.2c25.6-6.4 51.2-12.8 76.8-12.8 57.6 0 115.2 25.6 160 64l128 128c44.8 44.8 64 96 64 160s-25.6 115.2-64 160zM512 307.2v-19.2c0-44.8-19.2-83.2-44.8-115.2l-128-128c-32-25.6-76.8-44.8-115.2-44.8s-83.2 12.8-115.2 44.8c-25.6 32-44.8 70.4-44.8 115.2s19.2 83.2 44.8 115.2l128 128c32 32 70.4 44.8 115.2 44.8h25.6l51.2 51.2c-25.6 6.4-51.2 12.8-76.8 12.8-57.6 0-115.2-19.2-160-64l-128-128c-44.8-44.8-64-96-64-160s25.6-115.2 64-160c44.8-44.8 96-64 160-64s115.2 25.6 160 64l128 128c44.8 44.8 64 96 64 160 0 25.6-6.4 51.2-12.8 76.8l-51.2-57.6zM224 160c6.4-6.4 19.2-12.8 32-12.8s25.6 6.4 32 12.8l512 512c19.2 19.2 19.2 51.2 0 70.4s-51.2 19.2-70.4 0l-512-512c-12.8-25.6-12.8-51.2 6.4-70.4z" />
<glyph unicode="&#xe98d;" glyph-name="checklist" d="M512 704h512v-128h-512zM512 320h512v-128h-512zM332.8 832l-185.6-185.6-76.8 83.2-70.4-70.4 147.2-147.2 256 249.6zM332.8 448l-185.6-185.6-76.8 83.2-70.4-70.4 147.2-147.2 256 249.6z" />
<glyph unicode="&#xe98e;" glyph-name="drawer" d="M912.64 821.056c-9.728 43.776-48.576 74.944-93.376 74.944h-614.528c-44.8 0-83.648-31.168-93.376-74.944l-111.36-501.056v-256c0-35.328 28.672-64 64-64h896c35.328 0 64 28.672 64 64v256l-111.36 501.056zM640 224c0-17.6-14.4-32-32-32h-192c-17.6 0-32 14.4-32 32v64c0 17.664-14.336 32-32 32h-246.208c-20.672 0-35.968 19.136-31.488 39.296l99.52 447.936c3.2 14.464 16.064 24.768 30.912 24.768h614.464c14.848 0 27.712-10.304 30.976-24.832l99.52-447.936c4.48-20.096-10.816-39.232-31.488-39.232h-246.208c-17.664 0-32-14.336-32-32v-64z" />
<glyph unicode="&#xe98f;" glyph-name="hotkey" d="M896 960h-768c-70.4 0-128-57.6-128-128v-768c0-70.4 57.6-128 128-128h768c70.4 0 128 57.6 128 128v768c0 70.4-57.6 128-128 128zM944 160c0-44.16-35.84-80-80-80h-704c-44.16 0-80 35.84-80 80v640c0 44.16 35.84 80 80 80h704c44.16 0 80-35.84 80-80v-640zM864 848h-704c-26.432 0-48-21.568-48-48v-640c0-26.432 21.568-48 48-48h704c26.432 0 48 21.568 48 48v640c0 26.432-21.568 48-48 48zM576 384h-128v128h-128v-128h-128v384h128v-128h128v128h128v-384z" />
<glyph unicode="&#xe990;" glyph-name="lock" d="M800 448h-32v192c0 140.8-115.2 256-256 256s-256-115.2-256-256v-192h-32c-51.2 0-96-44.8-96-96v-256c0-51.2 44.8-96 96-96h576c51.2 0 96 44.8 96 96v256c0 51.2-44.8 96-96 96zM384 640c0 70.4 57.6 128 128 128s128-57.6 128-128v-192h-256v192z" />
<glyph unicode="&#xe991;" glyph-name="pulse" d="M512 128c-25.472 0-48.704 15.168-58.816 38.72l-145.664 339.392-62.208-93.568c-11.904-17.856-31.872-28.544-53.312-28.544h-128c-35.392 0-64 28.672-64 64s28.608 64 64 64h93.696l108.608 163.456c13.056 19.52 35.776 30.144 59.136 28.288 23.36-2.112 43.776-16.896 52.992-38.528l126.016-293.504 138.88 416.512c8.448 25.472 31.936 42.944 58.816 43.712 27.392 1.024 51.328-15.232 61.312-40.192l111.872-279.744h84.672c35.392 0 64-28.672 64-64s-28.608-64-64-64h-128c-26.176 0-49.664 15.936-59.456 40.192l-63.104 157.76-136.768-410.24c-8.384-25.216-31.424-42.624-57.984-43.712h-2.688z" />
<glyph unicode="&#xe992;" glyph-name="question2" d="M384 128h192v-192h-192v192zM192 646.4c0 153.6 96 313.6 307.2 313.6 217.6 0 307.2-153.6 307.2-313.6 0-128-70.4-172.8-134.4-243.2-44.8-44.8-89.6-102.4-89.6-211.2h-179.2c-6.4 147.2 51.2 236.8 102.4 288 64 64 121.6 89.6 121.6 172.8 0 76.8-38.4 140.8-128 140.8-83.2 0-128-64-128-140.8h-179.2z" />
<glyph unicode="&#xe993;" glyph-name="tablet" d="M864 960h-704c-52.8 0-96-43.2-96-96v-832c0-52.8 43.2-96 96-96h704c52.8 0 96 43.2 96 96v832c0 52.8-43.2 96-96 96zM512-32c-35.328 0-64 28.672-64 64s28.672 64 64 64 64-28.672 64-64-28.672-64-64-64zM896 128h-768v768h768v-768z" />
<glyph unicode="&#xe994;" glyph-name="webpages" d="M192 640h192v-192h-192v192zM448 640h256v-64h-256v64zM448 512h256v-64h-256v64zM192 384h512v-64h-512v64zM960 832h-64v64c0 38.4-25.6 64-64 64h-768c-38.4 0-64-25.6-64-64v-704c0-38.4 25.6-64 64-64h64v-64c0-38.4 25.6-64 64-64h768c38.4 0 64 25.6 64 64v704c0 38.4-25.6 64-64 64zM800 896c19.2 0 32-12.8 32-32s-12.8-32-32-32-32 12.8-32 32 12.8 32 32 32zM672 896c19.2 0 32-12.8 32-32s-12.8-32-32-32-32 12.8-32 32 12.8 32 32 32zM64 896h512v-64h-512v64zM64 192v576h768v-576h-768zM960 64h-768v64h640c38.4 0 64 25.6 64 64v576h64v-704z" />
<glyph unicode="&#xe995;" glyph-name="archive" d="M704 896h-384l-256-512v-384h896v384l-256 512zM608 192h-192c-17.6 0-32 14.4-32 32s14.4 32 32 32h192c17.6 0 32-14.4 32-32s-14.4-32-32-32zM359.552 832h304.896l224-448h-752.896l224 448zM256 512h512v-64h-512zM320 640h384v-64h-384zM384 768h256v-64h-256z" />
<glyph unicode="&#xe996;" glyph-name="clean" d="M1011.584 947.648c-16.64 16.512-43.648 16.512-60.224 0l-341.504-341.504-20.16 20.16c-24.576 24.576-57.024 37.12-89.664 37.12-26.624 0-53.312-8.32-75.968-25.344l-424.064-318.080 384-384 318.080 424.064c37.824 50.432 32.832 121.024-11.776 165.632l-20.224 20.224 341.504 341.504c16.576 16.576 16.576 43.584 0 60.224zM500.096 578.304c11.136 0 21.568-4.352 29.44-12.16l100.608-100.608c14.528-14.528 16.192-37.888 3.84-54.336l-24.512-32.704-166.976 166.976 32.64 24.512c9.216 6.848 18.624 8.32 24.96 8.32zM374.784 65.6l-46.976 46.976 70.976 70.976-45.248 45.248-70.976-70.976-46.848 46.848 106.88 106.88-45.248 45.248-106.88-106.88-60.864 60.864 261.184 195.904 179.904-179.904-195.904-261.184zM128 576c0-35.346-28.654-64-64-64s-64 28.654-64 64c0 35.346 28.654 64 64 64s64-28.654 64-64zM256 736c0-17.673-14.327-32-32-32s-32 14.327-32 32c0 17.673 14.327 32 32 32s32-14.327 32-32z" />
<glyph unicode="&#xe997;" glyph-name="clip" d="M704 640v-416c0-123.52-100.48-224-224-224s-224 100.48-224 224v512c0 88.256 71.744 160 160 160s160-71.744 160-160v-448c0-52.928-43.072-96-96-96s-96 43.072-96 96v352h-64v-352c0-88.256 71.744-160 160-160s160 71.744 160 160v448c0 123.52-100.48 224-224 224s-224-100.48-224-224v-512c0-158.784 129.216-288 288-288s288 129.216 288 288v416h-64z" />
<glyph unicode="&#xe998;" glyph-name="export-doc2" d="M704 960h-384c-70.4 0-128-57.6-128-128v-256h128v256h320v-256h256v-512h-576v128h-128v-128c0-70.4 57.6-128 128-128h576c70.4 0 128 57.6 128 128v576l-320 320zM448 128l320 256-320 256v-192h-448v-128h448z" />
<glyph unicode="&#xe999;" glyph-name="goblet" d="M730.432 369.472c173.376 81.984 293.568 257.984 293.568 462.528h-192v64h-640v-64h-192c0-204.544 120.192-380.544 293.568-462.528 42.752-64.576 97.152-120.64 160.768-164.736l-38.336-76.736h-32c-70.656 0-128-57.28-128-128h512c0 70.72-57.344 128-128 128h-32l-38.336 76.736c63.616 44.096 117.952 100.096 160.768 164.736zM955.456 768c-16.704-116.48-78.72-218.304-167.168-287.936 27.584 69.44 43.712 144.64 43.712 223.936v64h123.456zM68.544 768h123.456v-64c0-79.296 16.128-154.496 43.776-223.936-88.512 69.632-150.464 171.456-167.232 287.936z" />
<glyph unicode="&#xe99a;" glyph-name="hourglass" d="M832 44.8v147.2c0 51.2-25.6 115.2-64 153.6l-102.4 102.4 102.4 102.4c38.4 38.4 64 102.4 64 153.6v147.2c38.4 19.2 64 64 64 108.8h-768c0-44.8 25.6-89.6 64-108.8v-147.2c0-51.2 25.6-115.2 64-153.6l102.4-102.4-102.4-102.4c-38.4-38.4-64-102.4-64-153.6v-147.2c-38.4-19.2-64-64-64-108.8h768c0 44.8-25.6 89.6-64 108.8zM320 64v128c0 19.2 12.8 51.2 25.6 64l102.4 102.4c51.2 51.2 51.2 128 0 179.2l-102.4 102.4c-12.8 12.8-25.6 44.8-25.6 64v128h384v-128c0-19.2-12.8-51.2-25.6-64l-102.4-102.4c-51.2-51.2-51.2-128 0-179.2l102.4-102.4c12.8-12.8 25.6-44.8 25.6-64v-128h-384zM384 128h256l-128 128zM640 768h-256l128-128z" />
<glyph unicode="&#xe99b;" glyph-name="magnet" d="M512 640h448v256h-448c-249.6 0-448-198.4-448-448s198.4-448 448-448h448v256h-448c-108.8 0-192 83.2-192 192s83.2 192 192 192zM768 832h128v-128h-128v128zM768 192h128v-128h-128v128z" />
<glyph unicode="&#xe99c;" glyph-name="pinall" d="M352 960c-193.984 0-352-160-352-360 0-174.016 102.016-347.968 185.984-472 70.016-102.016 124.032-192 166.016-192s96 89.984 166.016 192c83.968 124.032 185.984 297.984 185.984 472 0 200-158.016 360-352 360zM352 448c-88 0-160 72-160 160s72 160 160 160 160-72 160-160-72-160-160-160zM832 768h192v-128h-192v128zM832 512h192v-128h-192v128zM768 128h256v128h-192z" />
<glyph unicode="&#xe99d;" glyph-name="toxic2" d="M640 512c0-70.692-57.308-128-128-128s-128 57.308-128 128c0 70.692 57.308 128 128 128s128-57.308 128-128zM384 748.8l-108.8 192c-6.4 12.8-19.2 19.2-32 19.2-6.4 0-12.8 0-19.2-6.4-128-89.6-211.2-236.8-224-396.8 0-25.6 19.2-44.8 38.4-44.8h211.2c19.2 0 32 12.8 38.4 32 6.4 64 38.4 115.2 83.2 147.2 19.2 19.2 19.2 38.4 12.8 57.6zM640 748.8l108.8 192c6.4 12.8 19.2 19.2 32 19.2 6.4 0 12.8 0 19.2-6.4 121.6-89.6 211.2-230.4 224-396.8 0-25.6-19.2-44.8-38.4-44.8h-211.2c-19.2 0-32 12.8-38.4 32-6.4 64-38.4 115.2-83.2 147.2-19.2 19.2-19.2 38.4-12.8 57.6zM640 288c-6.4 19.2-32 25.6-44.8 19.2-25.6-12.8-51.2-19.2-83.2-19.2s-57.6 6.4-83.2 19.2c-19.2 6.4-38.4 0-44.8-19.2l-108.8-185.6c-12.8-19.2-6.4-44.8 12.8-51.2 70.4-32 147.2-51.2 224-51.2s153.6 19.2 217.6 51.2c19.2 6.4 25.6 32 12.8 51.2l-102.4 185.6z" />
<glyph unicode="&#xe99e;" glyph-name="ungroup" d="M57.088 960l-57.088-57.088 137.92-137.92c-19.136-28.224-31.232-62.72-31.232-100.992 0-68.672 36.736-127.488 89.216-153.536-15.168-107.456-195.904-98.112-195.904-194.752v-59.712h227.072c26.112 20.736 54.912 35.392 77.568 46.528l14.208 7.040c-33.088 45.632-52.16 102.592-52.16 162.432 0 47.808 13.184 91.712 34.112 130.112l72.192-72.192c-6.144-18.112-10.304-37.312-10.304-57.92 0-68.672 36.736-127.488 89.216-153.536-15.168-107.456-195.904-98.112-195.904-194.752v-59.712h512v70.912l198.912-198.912 57.088 57.088-966.912 966.912zM828.16 510.464c52.48 26.048 89.216 84.928 89.216 153.536-0.064 92.8-66.88 168-149.376 168s-149.312-75.2-149.312-168c0-68.672 36.736-127.488 89.216-153.536-2.176-15.552-8.128-28.48-16.256-39.872l214.528-214.592h117.824v59.712c0 96.64-180.736 87.296-195.84 194.752z" />
<glyph unicode="&#xe99f;" glyph-name="copy" d="M640 768h-128v-128h-128v-128h128v-128h128v128h128v128h-128zM832 960h-512c-70.4 0-128-57.6-128-128v-512c0-70.4 57.6-128 128-128h512c70.4 0 128 57.6 128 128v512c0 70.4-57.6 128-128 128zM896 320c0-35.264-28.672-64-64-64h-512c-35.328 0-64 28.736-64 64v512c0 35.264 28.672 64 64 64h512c35.328 0 64-28.736 64-64v-512zM640 64h-512c-35.328 0-64 28.736-64 64v512c0 35.264 28.672 64 64 64v64c-70.4 0-128-57.6-128-128v-512c0-70.4 57.6-128 128-128h512c70.4 0 128 57.6 128 128h-64c0-35.264-28.672-64-64-64z" />
</font>
</defs>
</svg>
